<?xml version="1.0" encoding="UTF-8" standalone="no"?>
<!-- Created with Inkscape (http://www.inkscape.org/) -->

<svg
   width="210mm"
   height="297mm"
   viewBox="0 0 210 297"
   version="1.1"
   id="svg5"
   sodipodi:docname="logo3.svg"
   inkscape:version="1.2.2 (b0a8486, 2022-12-01)"
   inkscape:export-filename="logo.svg"
   inkscape:export-xdpi="96"
   inkscape:export-ydpi="96"
   xmlns:inkscape="http://www.inkscape.org/namespaces/inkscape"
   xmlns:sodipodi="http://sodipodi.sourceforge.net/DTD/sodipodi-0.dtd"
   xmlns="http://www.w3.org/2000/svg"
   xmlns:svg="http://www.w3.org/2000/svg">
  <sodipodi:namedview
     id="namedview7"
     pagecolor="#ffffff"
     bordercolor="#000000"
     borderopacity="0.25"
     inkscape:showpageshadow="2"
     inkscape:pageopacity="0.0"
     inkscape:pagecheckerboard="0"
     inkscape:deskcolor="#d1d1d1"
     inkscape:document-units="mm"
     showgrid="false"
     showguides="true"
     inkscape:zoom="0.59505287"
     inkscape:cx="420.971"
     inkscape:cy="535.24656"
     inkscape:window-width="1440"
     inkscape:window-height="795"
     inkscape:window-x="0"
     inkscape:window-y="25"
     inkscape:window-maximized="0"
     inkscape:current-layer="layer1" />
  <defs
     id="defs2" />
  <g
     inkscape:label="Layer 1"
     inkscape:groupmode="layer"
     id="layer1">
    <path
       style="color:#000000;fill:#ffff00;stroke-width:0.999999;stroke-linecap:round;stroke-linejoin:round;-inkscape-stroke:none"
       d="m 27.750635,110.46056 a 0.95601772,0.95601772 0 0 1 1.263827,-0.47967 0.95601772,0.95601772 0 0 1 0.479668,1.26384 c -9.393716,20.89913 -9.586812,44.77963 -0.533004,65.82825 a 0.95601772,0.95601772 0 0 1 -0.500648,1.25546 0.95601772,0.95601772 0 0 1 -1.256279,-0.5002 c -9.26515,-21.53994 -9.066561,-45.98071 0.546436,-67.36768 z"
       id="path56034" />
    <path
       style="color:#000000;fill:#ffff00;stroke-width:0.999999;stroke-linecap:round;stroke-linejoin:round;-inkscape-stroke:none"
       d="m 178.26066,108.16782 a 0.95601772,0.95601772 0 0 1 1.27506,0.44861 c 10.12999,21.14775 10.92118,45.5772 2.18126,67.33629 a 0.95601772,0.95601772 0 0 1 -1.24334,0.53121 0.95601772,0.95601772 0 0 1 -0.53121,-1.24334 c 8.54056,-21.26275 7.76727,-45.13273 -2.13165,-65.79809 a 0.95601772,0.95601772 0 0 1 0.44988,-1.27468 z"
       id="path56030" />
    <text
       xml:space="preserve"
       style="font-size:3.175px;opacity:1;fill:none;stroke:#000000;stroke-width:15;stroke-linecap:square;stroke-linejoin:miter;stroke-dasharray:none"
       x="-1307.1482"
       y="842.18945"
       id="text47081"><tspan
         sodipodi:role="line"
         id="tspan47079"
         style="stroke-width:15" /></text>
    <text
       xml:space="preserve"
       style="font-style:normal;font-variant:normal;font-weight:normal;font-stretch:normal;font-size:122.163px;font-family:'.Al Bayan PUA';-inkscape-font-specification:'.Al Bayan PUA, Normal';font-variant-ligatures:normal;font-variant-caps:normal;font-variant-numeric:normal;font-variant-east-asian:normal;opacity:1;fill:none;stroke:#000000;stroke-width:15;stroke-linecap:square;stroke-linejoin:miter;stroke-dasharray:none"
       x="-439.07965"
       y="237.11496"
       id="text47352"
       transform="scale(0.95721453,1.0446979)"><tspan
         sodipodi:role="line"
         id="tspan47348"
         style="font-style:normal;font-variant:normal;font-weight:normal;font-stretch:normal;font-size:122.163px;font-family:'.Al Bayan PUA';-inkscape-font-specification:'.Al Bayan PUA, Normal';font-variant-ligatures:normal;font-variant-caps:normal;font-variant-numeric:normal;font-variant-east-asian:normal;stroke-width:15"
         x="-439.07965"
         y="237.11496" /><tspan
         sodipodi:role="line"
         style="font-style:normal;font-variant:normal;font-weight:normal;font-stretch:normal;font-size:122.163px;font-family:'.Al Bayan PUA';-inkscape-font-specification:'.Al Bayan PUA, Normal';font-variant-ligatures:normal;font-variant-caps:normal;font-variant-numeric:normal;font-variant-east-asian:normal;stroke-width:15"
         id="tspan47350"
         x="-439.07965"
         y="389.81873" /></text>
    <g
       id="g47562"
       transform="matrix(0.14878868,0,0,0.14435301,199.78194,85.547649)"
       style="fill:#ffff00;stroke-width:6.82341">
      <g
         id="g47552"
         style="fill:#ffff00;stroke-width:6.82341">
        <path
           id="rect1514"
           style="color:#000000;opacity:1;fill:#ffff00;stroke-width:6.82341;stroke-linecap:round;stroke-linejoin:round;-inkscape-stroke:none"
           d="m -859.56252,161.02531 v 7.50032 77.44334 h -222.22258 l 3.3708,9.9136 41.2895,121.436 -44.6603,131.34961 h 222.22258 v 81.05241 l 216.29274,172.67008 216.29326,-172.67008 v -81.05241 h 222.22468 l -44.66033,-131.34961 44.66033,-131.3496 h -10.47275 -211.75193 v -84.94366 z m 15.00012,15.00012 h 402.58576 v 69.94354 262.69921 73.83373 l -111.69809,89.17027 -89.59402,-71.52432 -89.59504,71.52484 -111.69861,-89.17079 z m 21.32169,20.67678 a 7.50075,7.50075 0 0 0 -2.93884,0.88728 7.50075,7.50075 0 0 0 -1.83347,1.40508 h -5.2e-4 a 7.50075,7.50075 0 0 0 -1.97301,6.4146 l 16.80053,100.60574 a 7.5,7.5 0 0 0 0.0941,0.46044 7.50075,7.50075 0 0 0 0.002,0.008 7.5,7.5 0 0 0 0.78909,2.0128 7.50075,7.50075 0 0 0 0,10e-4 7.5,7.5 0 0 0 10e-4,0.001 7.5,7.5 0 0 0 1.35185,1.7234 l 68.23098,65.13453 -85.05114,81.19194 a 7.50075,7.50075 0 0 0 -1.97817,7.66672 l 13.59193,43.40252 a 7.50075,7.50075 0 0 0 0.25218,0.52348 7.50075,7.50075 0 0 0 0.43409,0.90175 7.50075,7.50075 0 0 0 0.71416,1.03302 7.50075,7.50075 0 0 0 0.33125,0.47852 l 28.15952,29.49846 a 7.50075,7.50075 0 0 0 0.46302,0.35295 7.50075,7.50075 0 0 0 0.99891,0.76171 7.50075,7.50075 0 0 0 0.87901,0.47439 7.50075,7.50075 0 0 0 0.51315,0.27698 l 42.72452,15.59078 a 7.50075,7.50075 0 0 0 7.74992,-1.62005 l 89.66584,-85.59685 89.66585,85.59685 a 7.50075,7.50075 0 0 0 2.31717,1.5074 7.50075,7.50075 0 0 0 5.43274,0.11265 l 42.72504,-15.59078 a 7.50075,7.50075 0 0 0 0.51263,-0.27698 7.50075,7.50075 0 0 0 0.87902,-0.47439 7.50075,7.50075 0 0 0 0.99942,-0.76171 7.50075,7.50075 0 0 0 0.46302,-0.35295 l 28.15952,-29.49846 a 7.50075,7.50075 0 0 0 0.33125,-0.47852 7.50075,7.50075 0 0 0 0.71365,-1.03302 7.50075,7.50075 0 0 0 0.43408,-0.90175 7.50075,7.50075 0 0 0 0.25219,-0.52348 l 13.59193,-43.40252 a 7.50075,7.50075 0 0 0 -1.97817,-7.66672 l -85.05063,-81.19142 68.23098,-65.13505 a 7.5,7.5 0 0 0 1.35186,-1.7234 7.5,7.5 0 0 0 5.1e-4,-0.001 7.50075,7.50075 0 0 0 5.2e-4,-10e-4 7.5,7.5 0 0 0 0.7891,-2.0128 7.50075,7.50075 0 0 0 0.002,-0.008 7.5,7.5 0 0 0 0.094,-0.46044 l 16.80001,-100.60574 a 7.50075,7.50075 0 0 0 -1.97301,-6.4146 h -5.2e-4 a 7.50075,7.50075 0 0 0 -6.31537,-2.26808 l -101.27651,12.11348 a 7.5,7.5 0 0 0 -0.29972,0.0661 7.50075,7.50075 0 0 0 -0.43098,0.0946 7.5,7.5 0 0 0 -1.54771,0.52555 7.50075,7.50075 0 0 0 -0.33228,0.14573 7.5,7.5 0 0 0 -1.55546,1.1038 7.50075,7.50075 0 0 0 -0.12248,0.0868 l -72.86377,69.55751 -72.86377,-69.55751 a 7.50075,7.50075 0 0 0 -0.12247,-0.0868 7.5,7.5 0 0 0 -1.55494,-1.1038 7.50075,7.50075 0 0 0 -0.33228,-0.14573 7.5,7.5 0 0 0 -1.54823,-0.52555 7.50075,7.50075 0 0 0 -0.43046,-0.0946 7.5,7.5 0 0 0 -0.29973,-0.0661 l -101.27702,-12.11348 a 7.50075,7.50075 0 0 0 -1.54306,-0.0243 z m 9.69864,16.10702 82.37585,9.85366 -10.37146,33.11581 -25.73952,26.96321 -32.59956,11.89644 z m 340.54717,0 -13.66532,81.82912 -32.60007,-11.89644 -25.739,-26.96321 -10.37146,-33.11581 z m -244.76594,17.23616 245.26358,234.13403 -8.59275,27.4376 -245.26152,-234.13299 z m 148.98419,0 8.5912,27.43864 -53.55487,51.12452 -18.66707,-17.81958 z m -492.06505,30.92318 h 201.27918 v 8.69352 l -197.83648,1.43144 z m 633.86518,0 h 201.28125 l -3.44268,10.12496 -197.83857,-1.43144 z m -307.67993,9.32501 246.51312,235.32775 -17.80202,18.64848 -246.51311,-235.32776 z m 182.77541,0 17.80253,18.64847 -50.13183,47.85703 -18.66862,-17.82165 z m -307.68148,14.36966 v 183.26427 l -193.00218,1.39681 31.2834,-92.00575 -31.0297,-91.26058 z m 432.586,0 192.75051,1.39475 -31.02963,91.26058 31.28336,92.00575 -193.00424,-1.39681 z m -337.89411,13.16768 245.26307,234.13403 -27.01024,9.85521 -245.26203,-234.13248 z m 243.20376,0 27.00921,9.85676 -60.02373,57.30038 -18.66708,-17.82062 z m -210.18872,87.89386 6.97115,6.65489 11.69593,11.16521 -92.25897,88.07214 -8.59224,-27.4376 z m 29.52843,28.18846 15.00167,14.32109 3.66696,3.50056 -96.9331,92.53492 -17.80253,-18.64848 z m 29.52998,28.19001 3.88452,3.7083 14.78256,14.11231 -85.78908,81.8963 -27.01075,-9.85521 z m -186.76534,40.82541 v 10.7394 h -201.27918 l 3.1641,-9.30589 z m 432.586,0 198.1171,1.43351 3.16415,9.30589 h -201.28125 z m -216.18629,143.12718 11.8184,37.72328 39.53092,-0.19327 -32.22491,22.89731 12.39925,37.53621 -31.7345,-23.57169 -31.8673,23.39134 12.61163,-37.46489 -32.09468,-23.07973 39.52885,0.41703 z" />
      </g>
      <text
         xml:space="preserve"
         style="font-style:normal;font-variant:normal;font-weight:normal;font-stretch:normal;font-size:122.163px;font-family:'.Al Bayan PUA';-inkscape-font-specification:'.Al Bayan PUA, Normal';font-variant-ligatures:normal;font-variant-caps:normal;font-variant-numeric:normal;font-variant-east-asian:normal;opacity:1;fill:#ffff00;stroke:#000000;stroke-width:102.351;stroke-linecap:square;stroke-linejoin:miter;stroke-dasharray:none"
         x="-1061.8427"
         y="237.40672"
         id="text47209"
         transform="scale(0.95721453,1.0446979)"><tspan
           sodipodi:role="line"
           id="tspan47207"
           style="font-style:normal;font-variant:normal;font-weight:normal;font-stretch:normal;font-size:122.163px;font-family:'.Al Bayan PUA';-inkscape-font-specification:'.Al Bayan PUA, Normal';font-variant-ligatures:normal;font-variant-caps:normal;font-variant-numeric:normal;font-variant-east-asian:normal;fill:#ffff00;stroke-width:102.351"
           x="-1061.8427"
           y="237.40672" /><tspan
           sodipodi:role="line"
           style="font-style:normal;font-variant:normal;font-weight:normal;font-stretch:normal;font-size:122.163px;font-family:'.Al Bayan PUA';-inkscape-font-specification:'.Al Bayan PUA, Normal';font-variant-ligatures:normal;font-variant-caps:normal;font-variant-numeric:normal;font-variant-east-asian:normal;fill:#ffff00;stroke-width:102.351"
           id="tspan47211"
           x="-1061.8427"
           y="405.58408">20</tspan></text>
      <text
         xml:space="preserve"
         style="font-style:normal;font-variant:normal;font-weight:normal;font-stretch:normal;font-size:122.163px;font-family:'.Al Bayan PUA';-inkscape-font-specification:'.Al Bayan PUA, Normal';font-variant-ligatures:normal;font-variant-caps:normal;font-variant-numeric:normal;font-variant-east-asian:normal;opacity:1;fill:#ffff00;stroke:#000000;stroke-width:102.351;stroke-linecap:square;stroke-linejoin:miter;stroke-dasharray:none"
         x="-439.07965"
         y="237.11496"
         id="text47415"
         transform="scale(0.95721453,1.0446979)"><tspan
           sodipodi:role="line"
           id="tspan47411"
           style="font-style:normal;font-variant:normal;font-weight:normal;font-stretch:normal;font-size:122.163px;font-family:'.Al Bayan PUA';-inkscape-font-specification:'.Al Bayan PUA, Normal';font-variant-ligatures:normal;font-variant-caps:normal;font-variant-numeric:normal;font-variant-east-asian:normal;fill:#ffff00;stroke-width:102.351"
           x="-439.07965"
           y="237.11496" /><tspan
           sodipodi:role="line"
           style="font-style:normal;font-variant:normal;font-weight:normal;font-stretch:normal;font-size:122.163px;font-family:'.Al Bayan PUA';-inkscape-font-specification:'.Al Bayan PUA, Normal';font-variant-ligatures:normal;font-variant-caps:normal;font-variant-numeric:normal;font-variant-east-asian:normal;fill:#ffff00;stroke-width:102.351"
           id="tspan47413"
           x="-439.07965"
           y="405.29233">17</tspan></text>
    </g>
    <text
       xml:space="preserve"
       style="font-style:normal;font-variant:normal;font-weight:normal;font-stretch:normal;font-size:122.163px;font-family:'.Al Bayan PUA';-inkscape-font-specification:'.Al Bayan PUA, Normal';font-variant-ligatures:normal;font-variant-caps:normal;font-variant-numeric:normal;font-variant-east-asian:normal;opacity:0.486792;fill:#000000;stroke:none;stroke-width:15;stroke-linecap:square;stroke-linejoin:miter;stroke-dasharray:none"
       x="-1176.3649"
       y="694.41803"
       id="text48469"><tspan
         sodipodi:role="line"
         id="tspan48467"
         style="stroke-width:15;fill:#000000"
         x="-1176.3649"
         y="694.41803" /></text>
    <g
       aria-label="LOGO DESIGN"
       id="text48473"
       style="font-size:32.5957px;line-height:0;font-family:'Comic Sans MS';-inkscape-font-specification:'Comic Sans MS, Normal';letter-spacing:10.6257px;opacity:1;fill:#ffff00;stroke-width:31.3802;stroke-linecap:square"
       transform="matrix(0.47800886,0,0,0.47800886,435.50468,-50.751016)">
      <path
         d="m -826.86725,317.63301 q -0.22904,1.97324 -1.68731,5.60028 -1.33975,3.34477 -2.5206,5.2531 -0.84586,1.36697 -1.63391,1.70286 -1.07093,0.46031 -2.58677,-0.47767 l -4.31236,-3.04275 q -5.98096,-4.18756 -13.5331,-8.86072 -0.58197,-0.36011 -0.75351,-0.99032 -0.16315,-0.64374 0.18859,-1.21218 0.36012,-0.58197 1.00064,-0.70969 0.6489,-0.14125 1.23087,0.21887 7.64688,4.73177 13.68714,8.97475 l 1.94834,1.44891 q 1.05635,0.80339 1.93929,1.31231 2.22643,-3.50733 3.86267,-9.96274 0.0747,-0.27196 0.20032,-0.47497 0.36012,-0.58197 1.06315,-0.68973 0.62894,-0.0787 1.17031,0.25626 0.8662,0.53599 0.73624,1.65343 z"
         id="path49306"
         style="fill:#ffff00;stroke-width:31.3802" />
      <path
         d="m -809.80057,299.24472 q -3.08186,3.26293 -7.17931,3.68385 -4.35587,0.43955 -7.64194,-2.66417 -4.00346,-3.7813 -5.03759,-9.24608 -1.13054,-6.08127 2.60704,-10.03844 3.59551,-3.80675 7.05655,-4.04062 3.60696,-0.2493 7.44842,3.379 4.00345,3.78129 5.16552,8.99473 1.3189,5.97456 -2.41869,9.93173 z m -14.87981,-16.02448 q -2.67751,2.83482 -1.71213,7.46841 0.87604,4.26461 4.00012,7.21533 2.23314,2.10922 5.19598,1.77698 2.81628,-0.33933 5.02386,-2.6766 2.65565,-2.81167 1.54755,-7.31735 -0.99304,-4.02483 -4.15183,-7.00834 -2.7654,-2.61193 -5.05711,-2.43395 -2.19079,0.16385 -4.84644,2.97552 z"
         id="path49308"
         style="fill:#ffff00;stroke-width:31.3802" />
      <path
         d="m -781.41859,262.5709 q 1.93024,4.59593 0.95669,8.79831 -0.96934,4.18026 -4.52356,6.59566 -3.2383,2.20069 -6.08304,1.49759 -2.85368,-0.71626 -5.3138,-4.3363 -2.31699,-3.40943 -3.16218,-8.10771 -0.84098,-4.72039 0.17462,-8.66269 0.67408,-2.63258 2.5565,-3.91185 1.19791,-0.81407 3.69607,-1.35719 3.03991,-0.68036 3.81821,0.4649 0.36678,0.53971 0.25813,1.22933 -0.10864,0.68962 -0.66152,1.06535 -0.2896,0.19681 -1.0398,0.22555 -2.84603,0.14449 -4.22823,1.08381 -0.98729,0.67094 -1.36894,2.43128 -0.19083,0.88017 -0.28301,2.92488 -0.30339,6.09462 2.89924,10.80726 1.68183,2.4748 3.11627,2.94322 1.56288,0.51584 3.78757,-0.99601 2.35632,-1.60132 3.08305,-4.26969 0.75626,-2.82314 -0.51466,-6.25069 -3.52113,2.66231 -5.2956,5.65783 -0.20436,0.35056 -0.49396,0.54737 -0.57921,0.39362 -1.26512,0.20548 -0.63275,-0.16654 -0.99953,-0.70625 -0.49203,-0.72401 -0.0896,-1.63255 1.66252,-3.66994 8.62618,-8.40232 0.56604,-0.38467 1.20722,-0.26235 0.64118,0.12231 1.0348,0.70152 0.58149,0.85565 0.10796,1.71626 z"
         id="path49310"
         style="fill:#ffff00;stroke-width:31.3802" />
      <path
         d="m -753.23812,260.6557 q -4.16562,1.67101 -8.06229,0.336 -4.13911,-1.42638 -5.82197,-5.62154 -2.05024,-5.111 -0.69898,-10.50613 1.52209,-5.99526 6.57401,-8.0218 4.85988,-1.94951 8.10033,-0.71139 3.37941,1.28527 5.3467,6.18947 2.05024,5.111 0.92047,10.33153 -1.30636,5.97732 -6.35827,8.00386 z m -6.79449,-20.78528 q -3.61907,1.45177 -4.68442,6.0634 -0.99182,4.23917 0.60808,8.22753 1.14363,2.85093 3.97297,3.79095 2.69924,0.87217 5.68312,-0.32479 3.58952,-1.43991 4.47168,-5.99522 0.78511,-4.0705 -0.83257,-8.10317 -1.41621,-3.53043 -3.57156,-4.32925 -2.05779,-0.76936 -5.6473,0.67055 z"
         id="path49312"
         style="fill:#ffff00;stroke-width:31.3802" />
      <path
         d="m -693.73496,247.83334 q -2.40377,1.77596 -7.0163,1.94436 -1.16108,0.0424 -2.66953,-0.26885 -1.81298,-0.36382 -2.74455,-1.01465 l -0.15905,0.006 q -0.68393,0.025 -1.1626,-0.43535 -0.47867,-0.46032 -0.50364,-1.14425 -0.061,-1.67005 -0.0392,-4.99948 0.0371,-3.34591 -0.0239,-5.01597 -0.0679,-1.86091 -0.28219,-5.54803 -0.19892,-3.70361 -0.26686,-5.56453 -0.0238,-0.65211 0.61809,-1.39224 0.64189,-0.74012 1.30991,-0.76451 0.38173,-0.0139 2.58375,0.97274 2.49296,1.10347 2.87933,1.21678 4.57343,1.3779 7.8712,4.45872 3.87536,3.63309 4.04027,8.15019 0.0993,2.7198 -1.09786,5.26396 -1.18125,2.54358 -3.33692,4.1353 z m -3.95447,-16.70584 q -1.66124,-1.00642 -7.62494,-3.38471 l 0.24676,4.57782 0.21437,4.56307 0.0626,8.69357 q 0.11308,0.0437 0.34156,0.19457 1.43392,0.88731 3.56523,0.8095 3.6264,-0.13239 5.2399,-1.30615 1.50449,-1.10608 2.34664,-2.90466 0.85746,-1.81507 0.7872,-3.73961 -0.16375,-4.48529 -5.17929,-7.5034 z"
         id="path49314"
         style="fill:#ffff00;stroke-width:31.3802" />
      <path
         d="m -655.63108,230.38186 q -0.21973,-0.037 -0.47334,-0.16037 -2.52567,-1.19981 -4.9898,-1.61456 -1.287,-0.21663 -2.84905,-0.23745 -1.56205,-0.0208 -3.40179,0.16985 -0.0305,1.04396 -0.13349,1.65607 -0.3672,2.18162 -1.27596,5.95062 l 6.98541,0.49788 q 3.08199,0.19596 3.77257,0.31219 0.69059,0.11624 1.08747,0.63495 0.39688,0.51872 0.27272,1.25639 -0.24039,1.42825 -1.7134,1.35786 l -3.79091,-0.29914 -7.36209,-0.56128 q -0.25034,1.10378 -0.4665,2.10034 -0.19782,0.98351 -0.34312,1.84674 -0.58382,3.46862 -0.1846,4.16526 0.30271,0.50287 2.39016,0.85422 0.9731,0.16378 2.92721,0.44427 1.97246,0.26744 2.96125,0.43387 0.3139,0.0528 0.94186,0.0617 0.6306,-0.007 0.92881,0.0434 1.66368,0.28002 1.38894,1.91231 -0.22191,1.31839 -1.6009,1.36066 -1.52553,0.0499 -6.4381,-0.77698 -4.86548,-0.81894 -6.03003,-2.33841 -1.27161,-1.65047 -0.42361,-6.6886 0.16907,-1.00448 0.41692,-2.18938 0.24786,-1.18491 0.55881,-2.55287 -0.11189,-0.39004 -0.0432,-0.79812 0.0898,-0.53363 0.45935,-0.9072 1.07736,-4.48305 1.44192,-6.64898 0.0978,-0.58072 0.12836,-1.72148 0.0332,-1.15647 0.13099,-1.73719 0.31437,-1.86771 1.88388,-1.60354 0.6592,0.11095 1.05344,0.64536 1.96795,-0.18523 3.67389,-0.15633 1.72165,0.0315 3.19699,0.27986 3.81391,0.64195 5.93647,1.93531 0.98025,0.60077 0.79797,1.68373 -0.10567,0.6278 -0.59564,1.04567 -0.54497,0.45702 -1.21986,0.34342 z"
         id="path49316"
         style="fill:#ffff00;stroke-width:31.3802" />
      <path
         d="m -642.86992,251.72244 q 0.22517,-0.6296 0.80454,-0.85008 0.59994,-0.22962 1.23868,0.0161 0.72786,0.28003 0.95744,1.32334 0.32323,1.4204 0.76311,2.05007 0.94258,1.31762 3.349,2.24344 2.30243,0.88583 4.66098,0.65067 3.01674,-0.30593 3.89113,-2.57866 0.72009,-1.87165 -0.9869,-3.77327 -1.43734,-1.62734 -4.05285,-2.71888 -2.31271,-0.99209 -3.60151,-2.56229 -1.64641,-2.01473 -0.78345,-4.25775 1.01727,-2.64409 4.85796,-3.67326 3.66129,-0.96177 6.7213,0.21551 1.44088,0.55436 3.06452,1.74178 2.16067,1.56457 1.77777,2.55982 -0.50292,1.30718 -1.83982,0.79284 -0.59417,-0.2286 -1.9596,-1.11204 -1.35971,-0.8983 -2.18242,-1.19777 -2.32872,-0.86183 -4.37648,-0.37068 -2.10375,0.50371 -2.73239,2.1377 -0.47435,1.23292 1.5298,2.58378 0.7427,0.50744 3.02683,1.5738 3.30451,1.56126 4.49492,4.185 1.08989,2.39748 0.13549,4.87817 -1.36017,3.53535 -5.43967,4.38739 -3.54014,0.73553 -7.28345,-0.70465 -2.71836,-1.04584 -4.57618,-2.95433 -2.27144,-2.34046 -1.45875,-4.58577 z"
         id="path49318"
         style="fill:#ffff00;stroke-width:31.3802" />
      <path
         d="m -592.33206,258.95196 q -0.86474,-0.53832 -2.06602,-1.52987 l -1.99874,-1.63798 q -2.75847,3.73843 -4.98747,7.31901 -0.5888,0.94581 -1.40112,2.37116 -0.81232,1.42534 -1.40112,2.37115 -0.79066,1.2701 -1.53292,2.25161 l 4.28981,2.59553 q 0.56749,0.35328 0.69347,0.99414 0.14791,0.63577 -0.21378,1.21677 -0.3701,0.59451 -1.01427,0.75593 -0.62226,0.15632 -1.18975,-0.19696 -0.75665,-0.47103 -2.29518,-1.37257 -1.53013,-0.91504 -2.28678,-1.38608 -0.89177,-0.55515 -2.82671,-1.42224 -1.92984,-0.84516 -2.83511,-1.40872 -0.56749,-0.35328 -0.70699,-1.00256 -0.1344,-0.62735 0.22729,-1.20835 0.36169,-0.581 0.99236,-0.75083 0.64417,-0.16142 1.21166,0.19185 0.87826,0.54674 3.08164,1.5247 0.81644,-1.01033 1.69122,-2.41554 0.58038,-0.9323 1.31852,-2.32883 0.76007,-1.40163 1.33204,-2.32042 1.94302,-3.12119 5.23167,-7.5607 l -1.79016,-1.03943 -1.78174,-1.05294 q -0.581,-0.36168 -0.72891,-0.99745 -0.14791,-0.63577 0.2306,-1.24379 0.78226,-1.25658 2.12805,-0.58752 1.16174,0.57323 4.16132,2.44055 2.68881,1.67385 6.38061,4.77826 1.09319,0.92426 0.30252,2.19435 -0.39533,0.63505 -1.09024,0.72739 -0.59881,0.0584 -1.12577,-0.26962 z"
         id="path49320"
         style="fill:#ffff00;stroke-width:31.3802" />
      <path
         d="m -570.28758,290.44617 q -4.04409,2.91441 -8.35776,2.9109 -4.29118,-0.004 -7.44403,-2.92433 -2.8726,-2.6604 -2.82729,-5.59039 0.0561,-2.94166 3.03015,-6.1529 2.801,-3.02441 7.18884,-4.90458 4.41033,-1.88104 8.48004,-1.77808 2.71674,0.0648 4.38659,1.61125 1.06263,0.98413 2.15366,3.29615 1.3466,2.80903 0.40572,3.82495 -0.4434,0.47877 -1.13978,0.528 -0.69639,0.0492 -1.18683,-0.40499 -0.2569,-0.23792 -0.45363,-0.96244 -0.78085,-2.74062 -2.00696,-3.87616 -0.8758,-0.8111 -2.67687,-0.78708 -0.90054,0.012 -2.9136,0.38204 -6.00673,1.07505 -9.87838,5.2555 -2.03315,2.19532 -2.16697,3.69836 -0.15114,1.63886 1.82231,3.46654 2.09023,1.93582 4.85368,2.04383 2.9209,0.10197 5.97482,-1.90725 -3.386,-2.83218 -6.70386,-3.8875 -0.38754,-0.12028 -0.64444,-0.35821 -0.5138,-0.47584 -0.48474,-1.18649 0.02,-0.65399 0.46337,-1.13276 0.59481,-0.64225 1.57059,-0.45442 3.94982,0.79457 10.12708,6.51553 0.50212,0.46503 0.52713,1.11729 0.025,0.65227 -0.45083,1.16607 -0.70295,0.75902 -1.64801,0.49117 z"
         id="path49322"
         style="fill:#ffff00;stroke-width:31.3802" />
      <path
         d="m -551.69682,324.58178 q -0.62757,0.43566 -2.23712,1.24299 -1.46573,0.70749 -2.29166,-0.48228 -0.49918,-0.71909 -0.24761,-2.36622 1.33968,-8.81557 6.0486,-22.295 l -3.01327,1.99489 -3.00819,2.03012 q -1.08517,0.75332 -3.22829,2.29917 -2.13405,1.55893 -3.2323,2.32132 -3.51701,2.44146 -4.46092,1.08172 -0.49919,-0.71909 -0.33202,-1.45513 0.1421,-0.66052 0.7043,-1.05079 0.54913,-0.38119 1.71491,-1.07421 1.17485,-0.67995 1.72398,-1.06114 0.81061,-0.56272 2.45506,-1.62678 1.65753,-1.07314 2.46815,-1.63585 0.8629,-0.59902 2.57457,-1.84536 1.72474,-1.25542 2.58765,-1.85444 0.82369,-0.5718 2.336,-1.85412 1.52539,-1.2914 2.34907,-1.8632 0.60142,-0.4175 1.45222,-0.25249 0.85987,0.17809 1.31367,0.83181 0.48103,0.69294 -0.32766,2.76557 -2.61681,6.6409 -4.04004,11.48449 -1.67977,5.75792 -2.6021,11.88129 0.58942,-0.35105 1.66044,-1.15266 l 1.62015,-1.18281 q 5.73966,-3.9844 8.83041,-6.78871 0.30363,-0.28827 1.12776,-1.30599 0.70754,-0.87866 1.20436,-1.22356 1.51663,-1.05282 2.4787,0.33307 1.57924,2.27494 -6.90605,8.16531 -1.45125,1.00745 -4.36792,2.97404 -2.9036,1.95751 -4.35485,2.96495 z"
         id="path49324"
         style="fill:#ffff00;stroke-width:31.3802" />
    </g>
    <g
       aria-label="WITH INKSCAPE"
       transform="matrix(0.47800886,0,0,0.47800886,435.5047,-50.751016)"
       id="text48522"
       style="font-size:32.5957px;font-family:'Comic Sans MS';-inkscape-font-specification:'Comic Sans MS, Normal';letter-spacing:10.5939px;opacity:1;fill:#ffff00;stroke-width:31.3802;stroke-linecap:square">
      <path
         d="m -847.0687,518.14276 q -0.40498,-0.60993 -0.36837,-1.3029 0.0456,-0.79448 0.62904,-1.18185 1.1994,-1.67518 2.10147,-2.50338 0.90206,-0.82819 5.01925,-4.8419 3.11776,-3.04443 5.12936,-4.70485 -5.1591,1.72516 -9.09346,2.38877 -4.55255,0.7684 -6.84958,1.62489 -0.19932,0.36159 -0.49102,0.55528 -0.59667,0.39617 -1.33334,0.1211 -0.67493,-0.23963 -1.07991,-0.84956 -1.1885,-1.79 0.41587,-2.85526 l 1.41102,-1.52911 5.53744,-5.7591 q 2.71606,-3.04518 7.47293,-9.20303 0.23007,-0.2865 0.46874,-0.44497 1.23312,-0.81874 2.15751,0.57348 0.57224,0.86186 -0.061,1.951 -0.31886,0.5556 -2.102,2.7903 -1.88051,2.37578 -4.7422,5.40303 l -5.00665,5.17741 q 4.23031,-0.76458 9.88381,-2.49323 3.44951,-1.04856 4.86262,-1.33726 3.72264,-0.75229 4.47096,0.37475 0.61626,0.92815 -0.0698,1.93773 -0.82336,1.23446 -4.79363,4.57747 -1.99845,1.709 -4.62551,4.37031 l -4.45378,4.60017 q 5.4492,-1.05806 14.4981,-3.2262 0.49462,-0.11826 2.94619,-1.00095 1.80665,-0.64551 3.03826,-0.66087 1.0462,-0.007 1.55682,0.76217 0.88918,1.33919 -0.43675,2.21956 -0.22541,0.14967 -1.60765,0.45608 l -1.78416,0.42043 -2.84436,0.83781 -12.18792,2.4183 q -1.93881,0.50401 -5.82905,1.17653 -1.2053,0.11252 -1.83917,-0.84215 z"
         id="path49367"
         style="fill:#ffff00;stroke-width:31.3802" />
      <path
         d="m -807.44135,531.27325 q -0.71755,-0.72298 -1.65824,-1.96449 l -1.56787,-2.05418 q -3.54515,3.0028 -6.53873,5.97392 -0.79075,0.78483 -1.90944,1.98483 -1.1187,1.2 -1.90945,1.98482 -1.06187,1.05391 -2.01018,1.83814 l 3.57689,3.51355 q 0.4709,0.47445 0.44593,1.12711 -0.002,0.65274 -0.48821,1.13485 -0.49704,0.49331 -1.16108,0.50207 -0.64153,0.009 -1.11242,-0.46562 -0.62786,-0.6326 -1.91747,-1.86417 -1.27831,-1.24279 -1.90617,-1.87539 -0.73998,-0.74557 -2.42327,-2.0349 -1.68338,-1.26681 -2.43457,-2.02368 -0.47089,-0.47445 -0.45714,-1.1384 0.0137,-0.64145 0.49942,-1.12355 0.48575,-0.48211 1.13858,-0.50216 0.66403,-0.009 1.13493,0.4657 0.72876,0.73427 2.64776,2.1933 1.02713,-0.79519 2.20197,-1.96122 0.77945,-0.77361 1.81933,-1.96265 1.06238,-1.18896 1.83054,-1.95136 2.60949,-2.58992 6.83201,-6.15289 l -1.50272,-1.4237 -1.49142,-1.43491 q -0.48211,-0.48575 -0.47965,-1.13849 0.002,-0.65274 0.5108,-1.15727 1.05057,-1.04269 2.20615,-0.0817 0.99853,0.82532 3.48754,3.33315 2.23114,2.248 5.10893,6.11906 0.85099,1.15114 -0.21088,2.20504 -0.53093,0.52696 -1.22844,0.45681 -0.59617,-0.081 -1.03343,-0.52159 z"
         id="path49369"
         style="fill:#ffff00;stroke-width:31.3802" />
      <path
         d="m -782.395,550.47446 q -0.95551,-0.68859 -2.83234,-2.27655 -1.83449,-1.53782 -2.85096,-2.25071 l -0.91677,-0.66068 q -1.24539,1.80982 -3.82011,6.03595 -2.40515,3.93637 -3.89399,6.00234 -0.32568,0.45193 -0.89597,1.43384 -0.57028,0.98191 -0.90527,1.44675 -0.63276,0.87804 -1.37278,1.30603 -0.9757,0.59166 -1.73752,0.0426 -0.51649,-0.37221 -0.66914,-1.03152 -0.15265,-0.65931 0.25678,-1.22745 0.13958,-0.19369 0.4833,-0.53453 0.34372,-0.34084 0.4833,-0.53453 0.45596,-0.6327 1.27748,-1.96324 0.83444,-1.32124 1.29971,-1.96685 1.33064,-1.84646 3.44372,-5.40477 2.29557,-3.83876 3.39207,-5.44198 l -1.18432,-0.83387 q -2.82779,-2.03784 -4.14406,-3.61419 -0.85049,-1.02488 -0.12468,-2.03204 0.38152,-0.52941 1.0057,-0.68775 0.71305,-0.17278 1.29201,0.30331 0.43332,0.35151 1.89848,1.72126 1.17956,1.08547 1.98012,1.66239 0.77474,0.55832 2.36865,1.66773 1.60322,1.09651 2.37796,1.65482 0.99424,0.7165 2.84164,2.26363 1.86031,1.55643 2.85456,2.27294 0.55523,0.40012 0.65053,1.05734 0.1046,0.64431 -0.30483,1.21245 -0.40012,0.55523 -1.05374,0.67275 -0.64431,0.1046 -1.19953,-0.29552 z"
         id="path49371"
         style="fill:#ffff00;stroke-width:31.3802" />
      <path
         d="m -754.12277,562.20408 q -0.50144,0.50239 -1.05223,1.66799 -0.20399,0.43171 -0.5764,1.29433 -0.37241,0.86262 -0.57641,1.29432 -0.67998,1.43902 -2.28537,4.16588 -1.591,2.73365 -2.27098,4.17267 -0.51679,1.09366 -1.39207,3.35576 -0.87528,2.26211 -1.39887,3.37015 -0.27879,0.59 -0.87211,0.80253 -0.57893,0.21933 -1.16893,-0.0595 -0.57561,-0.27199 -0.78814,-0.86531 -0.21253,-0.59332 0.0663,-1.18332 0.52358,-1.10804 1.39887,-3.37015 0.87528,-2.2621 1.39207,-3.35575 0.49638,-1.05049 1.07832,-2.09575 -2.48112,-1.1196 -6.43384,-2.14243 l -6.60146,-1.67593 q -0.61198,1.29511 -1.99977,3.56148 -1.381,2.25199 -1.99978,3.56149 -0.2788,0.59 -0.87212,0.80253 -0.58573,0.23372 -1.17572,-0.0451 -0.59,-0.2788 -0.79573,-0.88651 -0.19814,-0.58652 0.0806,-1.17651 0.72078,-1.52536 2.39338,-4.4317 1.69379,-2.91393 2.41457,-4.43929 0.37399,-0.79146 1.07121,-2.41597 0.69722,-1.62451 1.07801,-2.43036 0.53719,-1.13682 1.75546,-3.34247 1.22508,-2.22004 1.76226,-3.35687 0.2856,-0.60439 0.86453,-0.82371 0.59332,-0.21253 1.18331,0.0663 0.59,0.27879 0.78814,0.86531 0.21253,0.59332 -0.0731,1.19771 -0.54399,1.15121 -1.79025,3.37884 -1.22508,2.22004 -1.76906,3.37126 l -1.63402,3.68151 6.72417,1.75152 q 4.02467,1.05683 6.57094,2.22482 1.13067,-1.983 3.08902,-6.12737 0.51679,-1.09365 1.40693,-2.04609 1.20245,-1.31535 2.06587,-0.90736 0.54682,0.25839 0.78813,0.86531 0.24811,0.59253 -0.0375,1.19692 -0.102,0.21585 -0.40831,0.5288 z"
         id="path49373"
         style="fill:#ffff00;stroke-width:31.3802" />
      <path
         d="m -714.062,574.90761 q -1.00515,-0.16506 -2.49506,-0.61941 l -2.47442,-0.74506 q -1.11176,4.51098 -1.79523,8.67294 -0.18054,1.09938 -0.38337,2.72737 -0.20283,1.62798 -0.38337,2.72736 -0.24244,1.47632 -0.55098,2.66759 l 4.95755,0.74961 q 0.65963,0.10833 1.02201,0.65171 0.38067,0.53025 0.26976,1.20559 -0.11348,0.69104 -0.64631,1.08741 -0.51455,0.38324 -1.17418,0.27492 -0.87951,-0.14443 -2.64627,-0.38618 -1.76417,-0.25745 -2.64368,-0.40189 -1.03656,-0.17022 -3.15611,-0.22797 -2.10643,-0.0395 -3.1587,-0.21227 -0.65963,-0.10832 -1.03771,-0.65428 -0.36496,-0.52768 -0.25406,-1.20301 0.11091,-0.67534 0.62803,-1.07429 0.53284,-0.39637 1.19247,-0.28804 1.02086,0.16764 3.43084,0.2247 0.36597,-1.24636 0.6342,-2.87973 0.17796,-1.08368 0.32336,-2.65658 0.16368,-1.58602 0.33907,-2.654 0.59578,-3.62797 1.92792,-8.98986 l -2.05203,-0.27246 -2.04946,-0.28818 q -0.67533,-0.1109 -1.056,-0.64116 -0.38066,-0.53025 -0.2646,-1.237 0.23986,-1.46061 1.73939,-1.35952 1.29278,0.0833 4.7794,0.65584 3.1254,0.51325 7.72614,1.96233 1.36427,0.43372 1.12183,1.91003 -0.12122,0.73816 -0.72743,1.09023 -0.53048,0.28385 -1.143,0.18326 z"
         id="path49375"
         style="fill:#ffff00;stroke-width:31.3802" />
      <path
         d="m -679.66719,592.25713 q 0.008,0.76392 -0.22679,2.54917 -0.23707,1.61019 -1.68532,1.62603 -0.87532,0.01 -2.09739,-1.12308 -6.54437,-6.05641 -15.05787,-17.51893 l -0.0401,3.61355 -0.008,3.62913 q 0.0145,1.32093 0.0911,3.96229 0.0925,2.64118 0.10716,3.97803 0.0468,4.28111 -1.60834,4.29921 -0.87532,0.01 -1.39068,-0.54188 -0.46693,-0.48832 -0.47441,-1.17266 -0.007,-0.66842 0.0734,-2.02224 0.0966,-1.35398 0.0893,-2.02241 -0.0108,-0.98672 0.0315,-2.94495 0.0421,-1.97415 0.0313,-2.96088 -0.0115,-1.05038 -0.0824,-3.16654 -0.0711,-2.13208 -0.0826,-3.18246 -0.011,-1.00264 -0.22352,-2.974 -0.21273,-1.98728 -0.22369,-2.98992 -0.008,-0.73209 0.60606,-1.34364 0.62998,-0.61173 1.42573,-0.62043 0.84349,-0.009 2.10504,1.82333 4.02772,5.89294 7.23778,9.78929 3.82282,4.62183 8.37321,8.82186 0.0403,-0.68486 -0.0221,-2.02119 l -0.0697,-2.00476 q -0.0764,-6.98665 -0.66274,-11.11861 -0.0682,-0.41309 -0.44798,-1.66637 -0.33013,-1.07873 -0.33674,-1.6835 -0.0202,-1.84613 1.66679,-1.86457 2.7692,-0.0303 2.88214,10.2985 0.0193,1.76655 0.01,5.28427 -0.009,3.50181 0.01,5.26836 z"
         id="path49377"
         style="fill:#ffff00;stroke-width:31.3802" />
      <path
         d="m -649.48042,591.57954 q -2.37501,0.46033 -7.57427,-2.86055 l -5.58348,-3.79762 0.0424,0.21875 1.57132,8.19057 q 0.29982,1.54688 -1.05956,1.81036 -0.89063,0.17263 -1.57331,-0.50566 -0.56167,-0.55583 -0.70704,-1.30583 -0.70867,-3.65627 -1.90121,-10.97995 -1.19253,-7.32369 -1.89818,-10.96433 -0.13022,-0.67188 0.21642,-1.22543 0.36228,-0.55658 1.01853,-0.68378 0.67188,-0.13022 1.20023,0.25373 0.54399,0.38093 0.67421,1.0528 0.29377,1.51564 0.72711,4.75512 0.41215,3.13011 0.74577,4.76771 1.70913,-2.3902 3.7683,-5.90204 l 3.4759,-6.07233 q 0.41314,-0.71235 1.06939,-0.83955 0.62501,-0.12114 1.20024,0.25373 0.57523,0.37487 0.70546,1.04675 0.19988,1.03125 -2.96523,6.28138 -2.19071,3.58597 -4.59314,7.08327 2.2566,1.60534 6.97135,4.51756 l 1.90714,1.05701 q 1.02389,0.51488 2.12177,0.65875 1.31312,0.167 1.5342,1.30763 0.10297,0.53125 -0.13127,1.07923 -0.29117,0.67249 -0.96305,0.80272 z"
         id="path49379"
         style="fill:#ffff00;stroke-width:31.3802" />
      <path
         d="m -637.22822,583.37758 q -0.25209,-0.61931 0.0326,-1.16998 0.2939,-0.5712 0.93374,-0.81407 0.72913,-0.27675 1.59597,0.34756 1.18813,0.84283 1.93583,1.01868 1.58109,0.3532 3.99165,-0.56177 2.30641,-0.87544 3.90703,-2.62358 2.04388,-2.23984 1.17974,-4.51649 -0.71164,-1.87488 -3.25179,-2.15346 -2.15631,-0.25404 -4.83319,0.6769 -2.38493,0.8031 -4.39244,0.49259 -2.57045,-0.40327 -3.42329,-2.65016 -1.00534,-2.64864 1.17017,-5.9769 2.08677,-3.15838 5.15206,-4.32186 1.44336,-0.54786 3.44511,-0.74587 2.65343,-0.27513 3.03184,0.72183 0.49702,1.30944 -0.84218,1.81776 -0.5952,0.22592 -2.20181,0.47824 -1.61226,0.23743 -2.42501,0.56295 -2.30999,0.91085 -3.50832,2.64248 -1.23166,1.77834 -0.61039,3.41514 0.46879,1.23504 2.86306,0.90506 0.89183,-0.1172 3.305,-0.8459 3.50354,-1.04043 6.14036,0.12075 2.41101,1.05962 3.35422,3.54458 1.34422,3.54145 -1.12737,6.89697 -2.14739,2.90901 -5.89715,4.3323 -2.72305,1.03358 -5.38017,0.85047 -3.25341,-0.22916 -4.14525,-2.44422 z"
         id="path49381"
         style="fill:#ffff00;stroke-width:31.3802" />
      <path
         d="m -601.04094,550.81065 q -0.87848,0.51559 -1.92194,-0.25608 -0.89994,-0.65291 -1.34216,-0.65173 -0.37687,0.0182 -1.51615,0.68685 -1.99032,1.16815 -2.63141,5.64135 -0.89357,6.02393 1.25743,9.68887 1.03925,1.7707 2.92777,2.37858 1.94013,0.63295 3.58729,-0.33379 1.41381,-0.82979 2.41438,-2.39513 0.55444,-0.87905 1.49265,-3.05371 0.44404,-1.03571 0.84211,-1.26934 0.59023,-0.34642 1.25415,-0.12708 0.65586,0.20561 0.97811,0.75467 0.36253,0.61768 0.11484,1.39051 -1.7386,5.3388 -5.44472,7.51398 -2.84135,1.66763 -6.08515,0.63718 -3.13489,-1.0021 -4.8267,-3.88463 -2.73105,-4.65323 -1.70078,-11.82777 0.86046,-5.98604 4.1685,-7.92759 0.6726,-0.39475 1.2482,-0.64031 0.56756,-0.25929 1.05991,-0.36371 0.0696,-0.98201 0.83823,-1.43316 0.94712,-0.55588 1.92731,0.54821 0.87217,0.98293 1.8228,2.60264 0.33031,0.56278 0.27807,1.16553 -0.0564,0.75285 -0.74274,1.15566 z"
         id="path49383"
         style="fill:#ffff00;stroke-width:31.3802" />
      <path
         d="m -565.95013,546.66486 q -1.11679,0.94702 -4.37155,-1.21781 -1.24204,-0.82488 -4.03154,-3.1547 -1.09406,1.2199 -2.72643,3.35536 l -2.66281,3.40577 q 0.74152,2.10489 1.86671,6.40945 0.18799,1.00918 -0.47965,1.57533 -0.48556,0.41175 -1.17252,0.38912 -0.67483,-0.0329 -1.11746,-0.55491 -0.49409,-0.58267 -1.9242,-5.98507 -0.474,-0.14063 -0.82399,-0.55335 -0.83378,-0.98326 0.11908,-2.27124 -0.819,-3.77122 -1.56846,-8.93696 -1.02436,-7.04028 -0.3203,-7.63731 0.95898,-0.8132 2.44332,0.22357 l 4.22343,3.4302 8.96281,6.90284 2.31833,1.33122 q 1.18582,0.68474 1.46375,1.0125 0.44262,0.52197 0.36483,1.19311 -0.0778,0.67113 -0.56335,1.08288 z m -16.05074,-10.2412 1.27364,8.54007 q 1.14971,-1.62185 3.68298,-4.68821 z"
         id="path49385"
         style="fill:#ffff00;stroke-width:31.3802" />
      <path
         d="m -558.85267,524.97175 q -0.28723,0.34073 -1.4097,1.35126 1.75546,1.64634 6.35533,5.52394 0.48676,0.41033 0.56078,1.01395 0.0619,0.59336 -0.33822,1.06795 -0.41032,0.48676 -1.0056,0.52619 -0.60745,0.0292 -1.0942,-0.38117 l -3.57769,-3.01591 q -1.78884,-1.50795 -4.85331,-4.46593 -3.31168,-3.208 -4.81228,-4.51461 l -1.67932,-1.41563 q -1.20473,-1.01556 -1.62924,-1.62321 -0.83493,-1.18261 0.0805,-1.97218 0.20657,-0.49199 0.75096,-1.26125 0.54439,-0.76927 1.42659,-1.8158 1.87725,-2.22692 5.03969,-2.89169 3.48476,-0.72611 5.84554,1.26398 3.01791,2.54403 2.87822,6.33976 -0.11707,3.39847 -2.53801,6.27035 z m -9.14927,-8.75346 q -0.45136,0.53544 -0.78606,0.98187 -0.32444,0.43426 -0.52196,0.76735 l 2.21858,1.91185 4.62784,4.33831 1.28659,-1.20523 q 1.72338,-2.04439 1.86871,-4.31578 0.16082,-2.4873 -1.76188,-4.10809 -1.36293,-1.14892 -3.5796,-0.51956 -2.03917,0.59165 -3.35222,2.14928 z"
         id="path49387"
         style="fill:#ffff00;stroke-width:31.3802" />
      <path
         d="m -547.88399,488.22453 q -0.11518,0.19074 -0.32316,0.38123 -2.04432,1.9077 -3.33593,4.04679 -0.6746,1.11723 -1.26823,2.56223 -0.59363,1.44501 -1.09266,3.22601 0.95965,0.41212 1.49101,0.73297 1.89385,1.14353 5.06481,3.37426 l 3.03111,-6.31317 q 1.31528,-2.79412 1.67726,-3.39361 0.36198,-0.59949 0.99027,-0.77788 0.6283,-0.17839 1.26867,0.20827 1.23985,0.74864 0.63286,2.09261 l -1.67187,3.41546 -3.22855,6.64017 q 0.93445,0.6386 1.78176,1.206 0.84191,0.54553 1.59127,0.99801 3.01107,1.81813 3.8057,1.70298 0.57893,-0.0966 1.6731,-1.90874 0.51006,-0.84473 1.48931,-2.55889 0.97386,-1.736 1.49215,-2.59436 0.16453,-0.27249 0.40363,-0.85322 0.22547,-0.58896 0.38178,-0.84783 0.87205,-1.44422 2.28902,-0.58863 1.14448,0.69105 0.67682,1.98901 -0.51445,1.43704 -3.08944,5.70159 -2.55032,4.22368 -4.39151,4.74806 -2.00238,0.57579 -6.37593,-2.06502 -0.87198,-0.52651 -1.88278,-1.19263 -1.01081,-0.66611 -2.16865,-1.45819 -0.40387,-0.0394 -0.75811,-0.25324 -0.46324,-0.27972 -0.6748,-0.76071 -3.77302,-2.65005 -5.65324,-3.78535 -0.50412,-0.30439 -1.55374,-0.75225 -1.06326,-0.45608 -1.56737,-0.76047 -1.62135,-0.97899 -0.79867,-2.34147 0.34553,-0.57224 0.98745,-0.74241 0.55123,-1.89823 1.20527,-3.47408 0.66228,-1.58948 1.4356,-2.87021 1.99912,-3.31082 3.98224,-4.80925 0.91907,-0.69074 1.85918,-0.12309 0.54499,0.32907 0.75346,0.93835 0.22466,0.67483 -0.12909,1.2607 z"
         id="path49389"
         style="fill:#ffff00;stroke-width:31.3802" />
    </g>
  </g>
</svg>
