<?xml version="1.0" encoding="UTF-8" standalone="no"?>
<!-- Created with Inkscape (http://www.inkscape.org/) -->

<svg
   width="210mm"
   height="90mm"
   viewBox="0 0 210 89.999992"
   version="1.1"
   id="svg5"
   inkscape:version="1.2.2 (b0a8486, 2022-12-01)"
   sodipodi:docname="wilw907.svg"
   xmlns:inkscape="http://www.inkscape.org/namespaces/inkscape"
   xmlns:sodipodi="http://sodipodi.sourceforge.net/DTD/sodipodi-0.dtd"
   xmlns:xlink="http://www.w3.org/1999/xlink"
   xmlns="http://www.w3.org/2000/svg"
   xmlns:svg="http://www.w3.org/2000/svg">
  <sodipodi:namedview
     id="namedview7"
     pagecolor="#ffffff"
     bordercolor="#000000"
     borderopacity="0.25"
     inkscape:showpageshadow="2"
     inkscape:pageopacity="0.0"
     inkscape:pagecheckerboard="0"
     inkscape:deskcolor="#d1d1d1"
     inkscape:document-units="mm"
     showgrid="false"
     showguides="true"
     inkscape:zoom="1"
     inkscape:cx="407.5"
     inkscape:cy="162"
     inkscape:window-width="1440"
     inkscape:window-height="900"
     inkscape:window-x="0"
     inkscape:window-y="0"
     inkscape:window-maximized="0"
     inkscape:current-layer="layer1" />
  <defs
     id="defs2">
    <linearGradient
       inkscape:collect="always"
       id="linearGradient25203">
      <stop
         style="stop-color:#4278ca;stop-opacity:1;"
         offset="0"
         id="stop25199" />
      <stop
         style="stop-color:#3471c0;stop-opacity:1;"
         offset="0.62034059"
         id="stop28237" />
      <stop
         style="stop-color:#0c396e;stop-opacity:1;"
         offset="1"
         id="stop25201" />
    </linearGradient>
    <filter
       inkscape:collect="always"
       style="color-interpolation-filters:sRGB"
       id="filter14890"
       x="-0.98294527"
       y="-0.2815643"
       width="2.9658905"
       height="1.5631286">
      <feGaussianBlur
         inkscape:collect="always"
         stdDeviation="0.2286467"
         id="feGaussianBlur14892" />
    </filter>
    <radialGradient
       inkscape:collect="always"
       xlink:href="#linearGradient25203"
       id="radialGradient25205"
       cx="65.472404"
       cy="51.617908"
       fx="65.472404"
       fy="51.617908"
       r="31.588257"
       gradientTransform="matrix(3.3240201,0,0,1.4245799,-115.49067,-28.804544)"
       gradientUnits="userSpaceOnUse" />
  </defs>
  <g
     inkscape:label="Layer 1"
     inkscape:groupmode="layer"
     id="layer1"
     transform="translate(2.9816996,0.27070739)">
    <rect
       style="opacity:1;fill:url(#radialGradient25205);fill-opacity:1;stroke:none;stroke-width:1.323;stroke-linecap:round;stroke-linejoin:round;stroke-miterlimit:0.2;stroke-dasharray:none;stroke-opacity:1;paint-order:fill markers stroke"
       id="rect23631"
       width="210"
       height="90"
       x="-2.8590865"
       y="-0.2707074"
       ry="8.6068516" />
    <text
       xml:space="preserve"
       style="font-style:normal;font-variant:normal;font-weight:normal;font-stretch:normal;font-size:4.23333px;font-family:Copperplate;-inkscape-font-specification:'Copperplate, Normal';font-variant-ligatures:normal;font-variant-caps:normal;font-variant-numeric:normal;font-variant-east-asian:normal;opacity:0.51;fill:none;stroke:#0000ff;stroke-width:6.08542;stroke-linecap:square;stroke-miterlimit:0.2"
       x="86.382233"
       y="52.58049"
       id="text1432"><tspan
         sodipodi:role="line"
         id="tspan1430"
         style="fill:none;stroke-width:6.08542;stroke-miterlimit:0.2"
         x="86.382233"
         y="52.58049" /></text>
    <g
       id="g17176"
       transform="rotate(28.100387,227.92314,351.11052)">
      <path
         d="m 153.60589,47.585818 h 3.68626 v 1.231209 l -0.30228,0.611918 -0.30964,0.611918 q -0.61192,1.297562 -0.61192,1.843128 V 53.1152 h -1.23121 v -1.231209 q 0,-0.611918 0.61192,-1.843128 l 0.61929,-1.223836 v -0.619291 h -2.46242 z"
         id="path16360"
         transform="matrix(0.9828032,0,0,1.0174977,0.09999851,-7.3705751e-5)"
         style="font-size:7.37251px;line-height:0;font-family:Silom;-inkscape-font-specification:'Silom, Normal';letter-spacing:6.27125px;opacity:0.85;stroke:#000000;stroke-width:1.32292;stroke-linecap:round;stroke-linejoin:round;stroke-miterlimit:0.2;filter:url(#filter14890)" />
      <path
         d="m 150.56472,47.81814 h 3.62286 v 1.252752 l -0.29707,0.622626 -0.30432,0.622625 q -0.60139,1.320267 -0.60139,1.875379 v 1.252752 h -1.21004 v -1.252752 q 0,-0.622626 0.6014,-1.875379 l 0.60864,-1.245251 v -0.630126 h -2.42008 z"
         id="path16377"
         style="font-size:7.37251px;line-height:0;font-family:Silom;-inkscape-font-specification:'Silom, Normal';letter-spacing:6.27125px;opacity:0.940678;fill:#ffffff;stroke:#ffffff;stroke-width:1.32292;stroke-linecap:round;stroke-linejoin:round;stroke-miterlimit:0.2" />
      <path
         d="m 150.56472,47.81814 h 3.62286 v 1.252752 l -0.29707,0.622626 -0.30432,0.622625 q -0.60139,1.320267 -0.60139,1.875379 v 1.252752 h -1.21004 v -1.252752 q 0,-0.622626 0.6014,-1.875379 l 0.60864,-1.245251 v -0.630126 h -2.42008 z"
         id="path16394"
         style="font-size:7.37251px;line-height:0;font-family:Silom;-inkscape-font-specification:'Silom, Normal';letter-spacing:6.27125px;opacity:0.940678;fill:#3771c8;stroke:#3771c8;stroke-width:0.79375;stroke-linecap:round;stroke-linejoin:round;stroke-miterlimit:0.2" />
      <path
         d="m 150.56472,47.81814 h 3.62286 v 1.252752 l -0.29707,0.622626 -0.30432,0.622625 q -0.60139,1.320267 -0.60139,1.875379 v 1.252752 h -1.21004 v -1.252752 q 0,-0.622626 0.6014,-1.875379 l 0.60864,-1.245251 v -0.630126 h -2.42008 z"
         id="path16411"
         style="font-size:7.37251px;line-height:0;font-family:Silom;-inkscape-font-specification:'Silom, Normal';letter-spacing:6.27125px;opacity:0.940678;fill:#ffffff;stroke-width:0.264583;stroke-linecap:square;stroke-miterlimit:0.2" />
    </g>
    <g
       id="g17182"
       transform="rotate(30,220.46773,344.52675)">
      <path
         d="m 143.64839,47.585818 h 1.23121 q 0.50133,0 0.86258,0.368625 0.36125,0.361253 0.36125,0.862584 v 3.066964 q 0,0.501331 -0.36125,0.869956 -0.36125,0.361253 -0.86258,0.361253 h -1.23121 q -0.50133,0 -0.86996,-0.361253 -0.36125,-0.361253 -0.36125,-0.869956 v -3.066964 q 0,-0.508703 0.36125,-0.869956 0.36863,-0.361253 0.86996,-0.361253 z m 0.0147,4.401388 q 0.0442,0.250665 0.19169,0.383371 0.15482,0.132705 0.40549,0.132705 0.25803,0 0.43497,-0.184313 0.18432,-0.184313 0.18432,-0.434978 v -2.08642 z m 1.20909,-3.280767 q -0.1327,-0.508703 -0.61191,-0.508703 -0.25067,0 -0.43498,0.184313 -0.17694,0.17694 -0.17694,0.434978 v 2.08642 z"
         id="path16358"
         transform="matrix(0.9828032,0,0,1.0174977,0.09999851,-7.3705751e-5)"
         style="font-size:7.37251px;line-height:0;font-family:Silom;-inkscape-font-specification:'Silom, Normal';letter-spacing:6.27125px;opacity:0.85;stroke:#000000;stroke-width:1.32292;stroke-linecap:round;stroke-linejoin:round;stroke-miterlimit:0.2;filter:url(#filter14890)" />
      <path
         d="m 140.77846,47.81814 h 1.21003 q 0.49271,0 0.84775,0.375076 0.35504,0.367574 0.35504,0.877676 v 3.12063 q 0,0.510102 -0.35504,0.885178 -0.35504,0.367574 -0.84775,0.367574 h -1.21003 q -0.49271,0 -0.855,-0.367574 -0.35504,-0.367574 -0.35504,-0.885178 v -3.12063 q 0,-0.517604 0.35504,-0.885178 0.36229,-0.367574 0.855,-0.367574 z m 0.0145,4.478403 q 0.0434,0.255051 0.18839,0.390078 0.15216,0.135027 0.39851,0.135027 0.2536,0 0.4275,-0.187537 0.18114,-0.187538 0.18114,-0.442589 v -2.122929 z m 1.18829,-3.338173 q -0.13041,-0.517604 -0.60139,-0.517604 -0.24635,0 -0.42749,0.187537 -0.1739,0.180037 -0.1739,0.442589 v 2.122929 z"
         id="path16375"
         style="font-size:7.37251px;line-height:0;font-family:Silom;-inkscape-font-specification:'Silom, Normal';letter-spacing:6.27125px;opacity:0.940678;fill:#ffffff;stroke:#ffffff;stroke-width:1.32292;stroke-linecap:round;stroke-linejoin:round;stroke-miterlimit:0.2" />
      <path
         d="m 140.77846,47.81814 h 1.21003 q 0.49271,0 0.84775,0.375076 0.35504,0.367574 0.35504,0.877676 v 3.12063 q 0,0.510102 -0.35504,0.885178 -0.35504,0.367574 -0.84775,0.367574 h -1.21003 q -0.49271,0 -0.855,-0.367574 -0.35504,-0.367574 -0.35504,-0.885178 v -3.12063 q 0,-0.517604 0.35504,-0.885178 0.36229,-0.367574 0.855,-0.367574 z m 0.0145,4.478403 q 0.0434,0.255051 0.18839,0.390078 0.15216,0.135027 0.39851,0.135027 0.2536,0 0.4275,-0.187537 0.18114,-0.187538 0.18114,-0.442589 v -2.122929 z m 1.18829,-3.338173 q -0.13041,-0.517604 -0.60139,-0.517604 -0.24635,0 -0.42749,0.187537 -0.1739,0.180037 -0.1739,0.442589 v 2.122929 z"
         id="path16392"
         style="font-size:7.37251px;line-height:0;font-family:Silom;-inkscape-font-specification:'Silom, Normal';letter-spacing:6.27125px;opacity:0.940678;fill:#3771c8;stroke:#3771c8;stroke-width:0.79375;stroke-linecap:round;stroke-linejoin:round;stroke-miterlimit:0.2" />
      <path
         d="m 140.77846,47.81814 h 1.21003 q 0.49271,0 0.84775,0.375076 0.35504,0.367574 0.35504,0.877676 v 3.12063 q 0,0.510102 -0.35504,0.885178 -0.35504,0.367574 -0.84775,0.367574 h -1.21003 q -0.49271,0 -0.855,-0.367574 -0.35504,-0.367574 -0.35504,-0.885178 v -3.12063 q 0,-0.517604 0.35504,-0.885178 0.36229,-0.367574 0.855,-0.367574 z m 0.0145,4.478403 q 0.0434,0.255051 0.18839,0.390078 0.15216,0.135027 0.39851,0.135027 0.2536,0 0.4275,-0.187537 0.18114,-0.187538 0.18114,-0.442589 v -2.122929 z m 1.18829,-3.338173 q -0.13041,-0.517604 -0.60139,-0.517604 -0.24635,0 -0.42749,0.187537 -0.1739,0.180037 -0.1739,0.442589 v 2.122929 z"
         id="path16409"
         style="font-size:7.37251px;line-height:0;font-family:Silom;-inkscape-font-specification:'Silom, Normal';letter-spacing:6.27125px;opacity:0.940678;fill:#ffffff;stroke-width:0.264583;stroke-linecap:square;stroke-miterlimit:0.2" />
    </g>
    <g
       id="g17188"
       transform="translate(163.85303)">
      <path
         d="m 132.45967,48.817027 v 1.223836 q 0,0.250666 0.17694,0.434978 0.18432,0.184313 0.43498,0.184313 0.25804,0 0.43498,-0.184313 0.18431,-0.184312 0.18431,-0.434978 v -1.223836 q 0,-0.258038 -0.18431,-0.434978 -0.17694,-0.184313 -0.43498,-0.184313 -0.25066,0 -0.43498,0.184313 -0.17694,0.184312 -0.17694,0.434978 z m 1.23121,1.843127 q -0.0737,0.611919 -0.61929,0.611919 h -0.61192 q -0.50133,0 -0.86995,-0.361253 -0.36126,-0.361253 -0.36126,-0.869957 v -1.223836 q 0,-0.501331 0.36126,-0.862584 0.36862,-0.368625 0.86995,-0.368625 h 1.23121 q 0.50133,0 0.86259,0.368625 0.36125,0.361253 0.36125,0.862584 v 2.1454 q 0,0.884701 -0.63404,1.518737 -0.62666,0.634036 -1.51136,0.634036 h -0.92156 v -0.611918 h 0.61191 q 0.50871,0 0.86996,-0.361253 0.36125,-0.368626 0.36125,-0.869956 z"
         id="path16356"
         transform="matrix(0.85113254,0.4914016,-0.50874885,0.88117886,43.237386,-58.527943)"
         style="font-size:7.37251px;line-height:0;font-family:Silom;-inkscape-font-specification:'Silom, Normal';letter-spacing:6.27125px;opacity:0.85;stroke:#000000;stroke-width:1.32292;stroke-linecap:round;stroke-linejoin:round;stroke-miterlimit:0.2;filter:url(#filter14890)" />
      <path
         d="m 131.00994,48.809836 -0.62262,1.078419 q -0.12753,0.220881 -0.0707,0.470244 0.0631,0.252988 0.27646,0.376163 0.21962,0.1268 0.46399,0.05134 0.25065,-0.07184 0.37817,-0.292724 l 0.62263,-1.078419 q 0.13127,-0.227377 0.0644,-0.473863 -0.0568,-0.249362 -0.27646,-0.376162 -0.21334,-0.123175 -0.46399,-0.05134 -0.24437,0.07546 -0.3719,0.296343 z m 0.11024,2.229146 q -0.37402,0.503009 -0.83841,0.234889 l -0.52083,-0.3007 q -0.4267,-0.246355 -0.55666,-0.745824 -0.12369,-0.495853 0.13511,-0.944112 l 0.62263,-1.078419 q 0.25505,-0.441761 0.74632,-0.582565 0.50128,-0.143685 0.92798,0.10267 l 1.04792,0.60502 q 0.42669,0.24635 0.54664,0.7487 0.12368,0.495849 -0.13137,0.93761 l -1.09147,1.890482 q -0.45009,0.77958 -1.31231,1.026709 -0.85593,0.250759 -1.60893,-0.183986 l -0.78438,-0.45286 0.31132,-0.53921 0.52082,0.3007 q 0.43298,0.24998 0.92424,0.109172 0.49501,-0.147305 0.75006,-0.589067 z"
         id="path16373"
         style="font-size:7.37251px;line-height:0;font-family:Silom;-inkscape-font-specification:'Silom, Normal';letter-spacing:6.27125px;opacity:0.940678;fill:#ffffff;stroke:#ffffff;stroke-width:1.32292;stroke-linecap:round;stroke-linejoin:round;stroke-miterlimit:0.2" />
      <path
         d="m 131.00994,48.809836 -0.62262,1.078419 q -0.12753,0.220881 -0.0707,0.470244 0.0631,0.252988 0.27646,0.376163 0.21962,0.1268 0.46399,0.05134 0.25065,-0.07184 0.37817,-0.292724 l 0.62263,-1.078419 q 0.13127,-0.227377 0.0644,-0.473863 -0.0568,-0.249362 -0.27646,-0.376162 -0.21334,-0.123175 -0.46399,-0.05134 -0.24437,0.07546 -0.3719,0.296343 z m 0.11024,2.229146 q -0.37402,0.503009 -0.83841,0.234889 l -0.52083,-0.3007 q -0.4267,-0.246355 -0.55666,-0.745824 -0.12369,-0.495853 0.13511,-0.944112 l 0.62263,-1.078419 q 0.25505,-0.441761 0.74632,-0.582565 0.50128,-0.143685 0.92798,0.10267 l 1.04792,0.60502 q 0.42669,0.24635 0.54664,0.7487 0.12368,0.495849 -0.13137,0.93761 l -1.09147,1.890482 q -0.45009,0.77958 -1.31231,1.026709 -0.85593,0.250759 -1.60893,-0.183986 l -0.78438,-0.45286 0.31132,-0.53921 0.52082,0.3007 q 0.43298,0.24998 0.92424,0.109172 0.49501,-0.147305 0.75006,-0.589067 z"
         id="path16390"
         style="font-size:7.37251px;line-height:0;font-family:Silom;-inkscape-font-specification:'Silom, Normal';letter-spacing:6.27125px;opacity:0.940678;fill:#3771c8;stroke:#3771c8;stroke-width:0.79375;stroke-linecap:round;stroke-linejoin:round;stroke-miterlimit:0.2" />
      <path
         d="m 131.00994,48.809836 -0.62262,1.078419 q -0.12753,0.220881 -0.0707,0.470244 0.0631,0.252988 0.27646,0.376163 0.21962,0.1268 0.46399,0.05134 0.25065,-0.07184 0.37817,-0.292724 l 0.62263,-1.078419 q 0.13127,-0.227377 0.0644,-0.473863 -0.0568,-0.249362 -0.27646,-0.376162 -0.21334,-0.123175 -0.46399,-0.05134 -0.24437,0.07546 -0.3719,0.296343 z m 0.11024,2.229146 q -0.37402,0.503009 -0.83841,0.234889 l -0.52083,-0.3007 q -0.4267,-0.246355 -0.55666,-0.745824 -0.12369,-0.495853 0.13511,-0.944112 l 0.62263,-1.078419 q 0.25505,-0.441761 0.74632,-0.582565 0.50128,-0.143685 0.92798,0.10267 l 1.04792,0.60502 q 0.42669,0.24635 0.54664,0.7487 0.12368,0.495849 -0.13137,0.93761 l -1.09147,1.890482 q -0.45009,0.77958 -1.31231,1.026709 -0.85593,0.250759 -1.60893,-0.183986 l -0.78438,-0.45286 0.31132,-0.53921 0.52082,0.3007 q 0.43298,0.24998 0.92424,0.109172 0.49501,-0.147305 0.75006,-0.589067 z"
         id="path16407"
         style="font-size:7.37251px;line-height:0;font-family:Silom;-inkscape-font-specification:'Silom, Normal';letter-spacing:6.27125px;opacity:0.940678;fill:#ffffff;stroke-width:0.264583;stroke-linecap:square;stroke-miterlimit:0.2" />
    </g>
    <g
       id="g17194"
       transform="translate(170.7322)">
      <path
         d="m 122.50217,50.660154 v -0.619291 q 0,-0.250665 -0.18431,-0.427605 -0.17694,-0.184313 -0.43498,-0.184313 h -0.61192 q -0.54556,0 -0.61192,0.611918 h -0.61929 q 0.14745,-1.223836 1.23121,-1.223836 h 1.23121 q 0.50133,0 0.86258,0.361253 0.36126,0.361253 0.36126,0.862583 V 53.1152 h -1.22384 v -0.611918 q -0.0737,0.611918 -0.61929,0.611918 h -0.61192 q -0.50133,0 -0.86996,-0.361253 -0.36125,-0.361253 -0.36125,-0.869956 v 0 q 0,-0.501331 0.36125,-0.862584 0.36863,-0.361253 0.86996,-0.361253 z m 0,0.611919 h -0.61929 q -0.25067,0 -0.43498,0.184312 -0.17694,0.176941 -0.17694,0.427606 v 0 q 0,0.250665 0.17694,0.434978 0.18431,0.184313 0.43498,0.184313 0.25804,0 0.43498,-0.184313 0.18431,-0.184313 0.18431,-0.434978 z"
         id="path16354"
         transform="matrix(0.9828032,0,0,1.0174977,0.09999851,-7.3705751e-5)"
         style="font-size:7.37251px;line-height:0;font-family:Silom;-inkscape-font-specification:'Silom, Normal';letter-spacing:6.27125px;opacity:0.85;stroke:#000000;stroke-width:1.32292;stroke-linecap:round;stroke-linejoin:round;stroke-miterlimit:0.2;filter:url(#filter14890)" />
      <path
         d="m 119.99589,50.946271 v -0.630128 q 0,-0.255051 -0.18114,-0.435088 -0.1739,-0.187537 -0.4275,-0.187537 h -0.6014 q -0.53619,0 -0.6014,0.622625 h -0.60864 q 0.14492,-1.245251 1.21004,-1.245251 h 1.21004 q 0.4927,0 0.84774,0.367574 0.35505,0.367574 0.35505,0.877677 v 3.128131 h -1.20279 v -0.622626 q -0.0724,0.622626 -0.60864,0.622626 h -0.6014 q -0.49271,0 -0.855,-0.367574 -0.35504,-0.367574 -0.35504,-0.885178 v 0 q 0,-0.510103 0.35504,-0.877677 0.36229,-0.367574 0.855,-0.367574 z m 0,0.622625 h -0.60864 q -0.24636,0 -0.4275,0.187538 -0.1739,0.180036 -0.1739,0.435088 v 0 q 0,0.255051 0.1739,0.442589 0.18114,0.187537 0.4275,0.187537 0.2536,0 0.4275,-0.187537 0.18114,-0.187538 0.18114,-0.442589 z"
         id="path16371"
         style="font-size:7.37251px;line-height:0;font-family:Silom;-inkscape-font-specification:'Silom, Normal';letter-spacing:6.27125px;opacity:0.940678;fill:#ffffff;stroke:#ffffff;stroke-width:1.32292;stroke-linecap:round;stroke-linejoin:round;stroke-miterlimit:0.2" />
      <path
         d="m 119.99589,50.946271 v -0.630128 q 0,-0.255051 -0.18114,-0.435088 -0.1739,-0.187537 -0.4275,-0.187537 h -0.6014 q -0.53619,0 -0.6014,0.622625 h -0.60864 q 0.14492,-1.245251 1.21004,-1.245251 h 1.21004 q 0.4927,0 0.84774,0.367574 0.35505,0.367574 0.35505,0.877677 v 3.128131 h -1.20279 v -0.622626 q -0.0724,0.622626 -0.60864,0.622626 h -0.6014 q -0.49271,0 -0.855,-0.367574 -0.35504,-0.367574 -0.35504,-0.885178 v 0 q 0,-0.510103 0.35504,-0.877677 0.36229,-0.367574 0.855,-0.367574 z m 0,0.622625 h -0.60864 q -0.24636,0 -0.4275,0.187538 -0.1739,0.180036 -0.1739,0.435088 v 0 q 0,0.255051 0.1739,0.442589 0.18114,0.187537 0.4275,0.187537 0.2536,0 0.4275,-0.187537 0.18114,-0.187538 0.18114,-0.442589 z"
         id="path16388"
         style="font-size:7.37251px;line-height:0;font-family:Silom;-inkscape-font-specification:'Silom, Normal';letter-spacing:6.27125px;opacity:0.940678;fill:#3771c8;stroke:#3771c8;stroke-width:0.79375;stroke-linecap:round;stroke-linejoin:round;stroke-miterlimit:0.2" />
      <path
         d="m 119.99589,50.946271 v -0.630128 q 0,-0.255051 -0.18114,-0.435088 -0.1739,-0.187537 -0.4275,-0.187537 h -0.6014 q -0.53619,0 -0.6014,0.622625 h -0.60864 q 0.14492,-1.245251 1.21004,-1.245251 h 1.21004 q 0.4927,0 0.84774,0.367574 0.35505,0.367574 0.35505,0.877677 v 3.128131 h -1.20279 v -0.622626 q -0.0724,0.622626 -0.60864,0.622626 h -0.6014 q -0.49271,0 -0.855,-0.367574 -0.35504,-0.367574 -0.35504,-0.885178 v 0 q 0,-0.510103 0.35504,-0.877677 0.36229,-0.367574 0.855,-0.367574 z m 0,0.622625 h -0.60864 q -0.24636,0 -0.4275,0.187538 -0.1739,0.180036 -0.1739,0.435088 v 0 q 0,0.255051 0.1739,0.442589 0.18114,0.187537 0.4275,0.187537 0.2536,0 0.4275,-0.187537 0.18114,-0.187538 0.18114,-0.442589 z"
         id="path16405"
         style="font-size:7.37251px;line-height:0;font-family:Silom;-inkscape-font-specification:'Silom, Normal';letter-spacing:6.27125px;opacity:0.940678;fill:#ffffff;stroke-width:0.264583;stroke-linecap:square;stroke-miterlimit:0.2" />
    </g>
    <g
       id="g17200"
       transform="translate(177.61137)">
      <path
         d="m 106.396,48.817027 h 1.23121 v 3.686255 h 0.61192 q 0.25804,0 0.43498,-0.184313 0.18431,-0.184313 0.18431,-0.434978 v -3.066964 h 1.22384 v 3.686255 h 0.61929 q 0.25067,0 0.42761,-0.184313 0.18431,-0.184313 0.18431,-0.434978 v -3.066964 h 1.23121 v 2.197008 q 0,0.862583 -0.61929,1.481874 -0.61192,0.619291 -1.48188,0.619291 h -1.58509 V 52.923515 Q 108.50454,53.1152 107.98847,53.1152 H 106.396 Z"
         id="path16352"
         transform="matrix(0.9828032,0,0,1.0174977,0.09999851,-7.3705751e-5)"
         style="font-size:7.37251px;line-height:0;font-family:Silom;-inkscape-font-specification:'Silom, Normal';letter-spacing:6.27125px;opacity:0.85;stroke:#000000;stroke-width:1.32292;stroke-linecap:round;stroke-linejoin:round;stroke-miterlimit:0.2;filter:url(#filter14890)" />
      <path
         d="m 104.16669,49.070892 h 1.21004 v 3.750756 h 0.60139 q 0.25361,0 0.4275,-0.187537 0.18115,-0.187538 0.18115,-0.442589 v -3.12063 h 1.20279 v 3.750756 h 0.60864 q 0.24635,0 0.42025,-0.187537 0.18115,-0.187538 0.18115,-0.442589 v -3.12063 h 1.21003 v 2.235451 q 0,0.877677 -0.60864,1.507804 -0.60139,0.630127 -1.45639,0.630127 h -1.55783 v -0.19504 q -0.3478,0.19504 -0.85499,0.19504 h -1.56509 z"
         id="path16369"
         style="font-size:7.37251px;line-height:0;font-family:Silom;-inkscape-font-specification:'Silom, Normal';letter-spacing:6.27125px;opacity:0.940678;fill:#ffffff;stroke:#ffffff;stroke-width:1.32292;stroke-linecap:round;stroke-linejoin:round;stroke-miterlimit:0.2" />
      <path
         d="m 104.16669,49.070892 h 1.21004 v 3.750756 h 0.60139 q 0.25361,0 0.4275,-0.187537 0.18115,-0.187538 0.18115,-0.442589 v -3.12063 h 1.20279 v 3.750756 h 0.60864 q 0.24635,0 0.42025,-0.187537 0.18115,-0.187538 0.18115,-0.442589 v -3.12063 h 1.21003 v 2.235451 q 0,0.877677 -0.60864,1.507804 -0.60139,0.630127 -1.45639,0.630127 h -1.55783 v -0.19504 q -0.3478,0.19504 -0.85499,0.19504 h -1.56509 z"
         id="path16386"
         style="font-size:7.37251px;line-height:0;font-family:Silom;-inkscape-font-specification:'Silom, Normal';letter-spacing:6.27125px;opacity:0.940678;fill:#3771c8;stroke:#3771c8;stroke-width:0.79375;stroke-linecap:round;stroke-linejoin:round;stroke-miterlimit:0.2" />
      <path
         d="m 104.16669,49.070892 h 1.21004 v 3.750756 h 0.60139 q 0.25361,0 0.4275,-0.187537 0.18115,-0.187538 0.18115,-0.442589 v -3.12063 h 1.20279 v 3.750756 h 0.60864 q 0.24635,0 0.42025,-0.187537 0.18115,-0.187538 0.18115,-0.442589 v -3.12063 h 1.21003 v 2.235451 q 0,0.877677 -0.60864,1.507804 -0.60139,0.630127 -1.45639,0.630127 h -1.55783 v -0.19504 q -0.3478,0.19504 -0.85499,0.19504 h -1.56509 z"
         id="path16403"
         style="font-size:7.37251px;line-height:0;font-family:Silom;-inkscape-font-specification:'Silom, Normal';letter-spacing:6.27125px;opacity:0.940678;fill:#ffffff;stroke-width:0.264583;stroke-linecap:square;stroke-miterlimit:0.2" />
    </g>
    <g
       id="g17206"
       transform="translate(183.96137)">
      <path
         d="m 97.669722,53.1152 v -5.529382 h 1.23121 V 53.1152 Z"
         id="path16350"
         transform="matrix(0.9828032,0,0,1.0174977,0.09999851,-7.3705751e-5)"
         style="font-size:7.37251px;line-height:0;font-family:Silom;-inkscape-font-specification:'Silom, Normal';letter-spacing:6.27125px;opacity:0.85;stroke:#000000;stroke-width:1.32292;stroke-linecap:round;stroke-linejoin:round;stroke-miterlimit:0.2;filter:url(#filter14890)" />
      <path
         d="M 95.590476,53.444274 V 47.81814 h 1.210036 v 5.626134 z"
         id="path16367"
         style="font-size:7.37251px;line-height:0;font-family:Silom;-inkscape-font-specification:'Silom, Normal';letter-spacing:6.27125px;opacity:0.940678;fill:#ffffff;stroke:#ffffff;stroke-width:1.32292;stroke-linecap:round;stroke-linejoin:round;stroke-miterlimit:0.2" />
      <path
         d="M 95.590476,53.444274 V 47.81814 h 1.210036 v 5.626134 z"
         id="path16384"
         style="font-size:7.37251px;line-height:0;font-family:Silom;-inkscape-font-specification:'Silom, Normal';letter-spacing:6.27125px;opacity:0.940678;fill:#3771c8;stroke:#3771c8;stroke-width:0.79375;stroke-linecap:round;stroke-linejoin:round;stroke-miterlimit:0.2" />
      <path
         d="M 95.590476,53.444274 V 47.81814 h 1.210036 v 5.626134 z"
         id="path16401"
         style="font-size:7.37251px;line-height:0;font-family:Silom;-inkscape-font-specification:'Silom, Normal';letter-spacing:6.27125px;opacity:0.940678;fill:#ffffff;stroke-width:0.264583;stroke-linecap:square;stroke-miterlimit:0.2" />
    </g>
    <g
       id="g17212"
       transform="translate(190.31138)">
      <path
         d="m 88.943438,48.197736 v -0.611918 h 1.23121 v 0.611918 z m 0,4.917464 v -4.298173 h 1.23121 V 53.1152 Z"
         id="path16348"
         transform="matrix(0.9828032,0,0,1.0174977,0.09999851,-7.3705751e-5)"
         style="font-size:7.37251px;line-height:0;font-family:Silom;-inkscape-font-specification:'Silom, Normal';letter-spacing:6.27125px;opacity:0.85;stroke:#000000;stroke-width:1.32292;stroke-linecap:round;stroke-linejoin:round;stroke-miterlimit:0.2;filter:url(#filter14890)" />
      <path
         d="M 87.014256,48.440766 V 47.81814 h 1.210036 v 0.622626 z m 0,5.003508 v -4.373382 h 1.210036 v 4.373382 z"
         id="path16365"
         style="font-size:7.37251px;line-height:0;font-family:Silom;-inkscape-font-specification:'Silom, Normal';letter-spacing:6.27125px;opacity:0.940678;fill:#ffffff;stroke:#ffffff;stroke-width:1.32292;stroke-linecap:round;stroke-linejoin:round;stroke-miterlimit:0.2" />
      <path
         d="M 87.014256,48.440766 V 47.81814 h 1.210036 v 0.622626 z m 0,5.003508 v -4.373382 h 1.210036 v 4.373382 z"
         id="path16382"
         style="font-size:7.37251px;line-height:0;font-family:Silom;-inkscape-font-specification:'Silom, Normal';letter-spacing:6.27125px;opacity:0.940678;fill:#3771c8;stroke:#3771c8;stroke-width:0.79375;stroke-linecap:round;stroke-linejoin:round;stroke-miterlimit:0.2" />
      <path
         d="M 87.014256,48.440766 V 47.81814 h 1.210036 v 0.622626 z m 0,5.003508 v -4.373382 h 1.210036 v 4.373382 z"
         id="path16399"
         style="font-size:7.37251px;line-height:0;font-family:Silom;-inkscape-font-specification:'Silom, Normal';letter-spacing:6.27125px;opacity:0.940678;fill:#ffffff;stroke-width:0.264583;stroke-linecap:square;stroke-miterlimit:0.2" />
    </g>
    <g
       id="g17218"
       transform="translate(196.66138)">
      <path
         d="m 75.299693,47.585818 h 1.231209 v 4.917464 h 0.611918 q 0.258038,0 0.434979,-0.184313 0.184312,-0.184313 0.184312,-0.434978 v -4.298173 h 1.223837 v 4.917464 h 0.619291 q 0.250665,0 0.427605,-0.184313 0.184313,-0.184313 0.184313,-0.434978 v -4.298173 h 1.231209 v 3.428217 q 0,0.862583 -0.619291,1.481874 -0.611918,0.619291 -1.481874,0.619291 h -1.58509 V 52.923515 Q 77.408231,53.1152 76.892155,53.1152 h -1.592462 z"
         id="path16346"
         transform="matrix(0.9828032,0,0,1.0174977,0.09999851,-7.3705751e-5)"
         style="font-size:7.37251px;line-height:0;font-family:Silom;-inkscape-font-specification:'Silom, Normal';letter-spacing:6.27125px;opacity:0.85;stroke:#000000;stroke-width:1.32292;stroke-linecap:round;stroke-linejoin:round;stroke-miterlimit:0.2;filter:url(#filter14890)" />
      <path
         d="m 73.60514,47.81814 h 1.210036 v 5.003508 h 0.601395 q 0.253601,0 0.427498,-0.187537 0.181144,-0.187538 0.181144,-0.442589 V 47.81814 h 1.202789 v 5.003508 h 0.608642 q 0.246355,0 0.420252,-0.187537 0.181144,-0.187538 0.181144,-0.442589 V 47.81814 h 1.210036 v 3.488203 q 0,0.877677 -0.608641,1.507804 -0.601395,0.630127 -1.456392,0.630127 h -1.55783 v -0.19504 q -0.347796,0.19504 -0.854996,0.19504 H 73.60514 Z"
         id="path16363"
         style="font-size:7.37251px;line-height:0;font-family:Silom;-inkscape-font-specification:'Silom, Normal';letter-spacing:6.27125px;opacity:0.940678;fill:#ffffff;stroke:#ffffff;stroke-width:1.32292;stroke-linecap:round;stroke-linejoin:round;stroke-miterlimit:0.2" />
      <path
         d="m 73.60514,47.81814 h 1.210036 v 5.003508 h 0.601395 q 0.253601,0 0.427498,-0.187537 0.181144,-0.187538 0.181144,-0.442589 V 47.81814 h 1.202789 v 5.003508 h 0.608642 q 0.246355,0 0.420252,-0.187537 0.181144,-0.187538 0.181144,-0.442589 V 47.81814 h 1.210036 v 3.488203 q 0,0.877677 -0.608641,1.507804 -0.601395,0.630127 -1.456392,0.630127 h -1.55783 v -0.19504 q -0.347796,0.19504 -0.854996,0.19504 H 73.60514 Z"
         id="path16380"
         style="font-size:7.37251px;line-height:0;font-family:Silom;-inkscape-font-specification:'Silom, Normal';letter-spacing:6.27125px;opacity:0.940678;fill:#3771c8;stroke:#3771c8;stroke-width:0.79375;stroke-linecap:round;stroke-linejoin:round;stroke-miterlimit:0.2" />
      <path
         d="m 73.60514,47.81814 h 1.210036 v 5.003508 h 0.601395 q 0.253601,0 0.427498,-0.187537 0.181144,-0.187538 0.181144,-0.442589 V 47.81814 h 1.202789 v 5.003508 h 0.608642 q 0.246355,0 0.420252,-0.187537 0.181144,-0.187538 0.181144,-0.442589 V 47.81814 h 1.210036 v 3.488203 q 0,0.877677 -0.608641,1.507804 -0.601395,0.630127 -1.456392,0.630127 h -1.55783 v -0.19504 q -0.347796,0.19504 -0.854996,0.19504 H 73.60514 Z"
         id="path16397"
         style="font-size:7.37251px;line-height:0;font-family:Silom;-inkscape-font-specification:'Silom, Normal';letter-spacing:6.27125px;opacity:0.940678;fill:#ffffff;stroke-width:0.264583;stroke-linecap:square;stroke-miterlimit:0.2" />
    </g>
    <g
       id="g20212"
       transform="rotate(0.0989953,-13871.446,86934.105)">
      <path
         d="m 153.60589,47.585818 h 3.68626 v 1.231209 l -0.30228,0.611918 -0.30964,0.611918 q -0.61192,1.297562 -0.61192,1.843128 V 53.1152 h -1.23121 v -1.231209 q 0,-0.611918 0.61192,-1.843128 l 0.61929,-1.223836 v -0.619291 h -2.46242 z"
         id="path20204"
         transform="matrix(0.9828032,0,0,1.0174977,0.09999851,-7.3705751e-5)"
         style="font-size:7.37251px;line-height:0;font-family:Silom;-inkscape-font-specification:'Silom, Normal';letter-spacing:6.27125px;opacity:0.85;stroke:#000000;stroke-width:1.32292;stroke-linecap:round;stroke-linejoin:round;stroke-miterlimit:0.2;filter:url(#filter14890)" />
      <path
         d="m 150.56472,47.81814 h 3.62286 v 1.252752 l -0.29707,0.622626 -0.30432,0.622625 q -0.60139,1.320267 -0.60139,1.875379 v 1.252752 h -1.21004 v -1.252752 q 0,-0.622626 0.6014,-1.875379 l 0.60864,-1.245251 v -0.630126 h -2.42008 z"
         id="path20206"
         style="font-size:7.37251px;line-height:0;font-family:Silom;-inkscape-font-specification:'Silom, Normal';letter-spacing:6.27125px;opacity:0.940678;fill:#ffffff;stroke:#ffffff;stroke-width:1.32292;stroke-linecap:round;stroke-linejoin:round;stroke-miterlimit:0.2" />
      <path
         d="m 150.56472,47.81814 h 3.62286 v 1.252752 l -0.29707,0.622626 -0.30432,0.622625 q -0.60139,1.320267 -0.60139,1.875379 v 1.252752 h -1.21004 v -1.252752 q 0,-0.622626 0.6014,-1.875379 l 0.60864,-1.245251 v -0.630126 h -2.42008 z"
         id="path20208"
         style="font-size:7.37251px;line-height:0;font-family:Silom;-inkscape-font-specification:'Silom, Normal';letter-spacing:6.27125px;opacity:0.940678;fill:#3771c8;stroke:#3771c8;stroke-width:0.79375;stroke-linecap:round;stroke-linejoin:round;stroke-miterlimit:0.2" />
      <path
         d="m 150.56472,47.81814 h 3.62286 v 1.252752 l -0.29707,0.622626 -0.30432,0.622625 q -0.60139,1.320267 -0.60139,1.875379 v 1.252752 h -1.21004 v -1.252752 q 0,-0.622626 0.6014,-1.875379 l 0.60864,-1.245251 v -0.630126 h -2.42008 z"
         id="path20210"
         style="font-size:7.37251px;line-height:0;font-family:Silom;-inkscape-font-specification:'Silom, Normal';letter-spacing:6.27125px;opacity:0.940678;fill:#ffffff;stroke-width:0.264583;stroke-linecap:square;stroke-miterlimit:0.2" />
    </g>
    <g
       id="g20222"
       transform="translate(157.17648,24.961056)">
      <path
         d="m 143.64839,47.585818 h 1.23121 q 0.50133,0 0.86258,0.368625 0.36125,0.361253 0.36125,0.862584 v 3.066964 q 0,0.501331 -0.36125,0.869956 -0.36125,0.361253 -0.86258,0.361253 h -1.23121 q -0.50133,0 -0.86996,-0.361253 -0.36125,-0.361253 -0.36125,-0.869956 v -3.066964 q 0,-0.508703 0.36125,-0.869956 0.36863,-0.361253 0.86996,-0.361253 z m 0.0147,4.401388 q 0.0442,0.250665 0.19169,0.383371 0.15482,0.132705 0.40549,0.132705 0.25803,0 0.43497,-0.184313 0.18432,-0.184313 0.18432,-0.434978 v -2.08642 z m 1.20909,-3.280767 q -0.1327,-0.508703 -0.61191,-0.508703 -0.25067,0 -0.43498,0.184313 -0.17694,0.17694 -0.17694,0.434978 v 2.08642 z"
         id="path20214"
         transform="matrix(0.9828032,0,0,1.0174977,0.09999851,-7.3705751e-5)"
         style="font-size:7.37251px;line-height:0;font-family:Silom;-inkscape-font-specification:'Silom, Normal';letter-spacing:6.27125px;opacity:0.85;stroke:#000000;stroke-width:1.32292;stroke-linecap:round;stroke-linejoin:round;stroke-miterlimit:0.2;filter:url(#filter14890)" />
      <path
         d="m 140.77846,47.81814 h 1.21003 q 0.49271,0 0.84775,0.375076 0.35504,0.367574 0.35504,0.877676 v 3.12063 q 0,0.510102 -0.35504,0.885178 -0.35504,0.367574 -0.84775,0.367574 h -1.21003 q -0.49271,0 -0.855,-0.367574 -0.35504,-0.367574 -0.35504,-0.885178 v -3.12063 q 0,-0.517604 0.35504,-0.885178 0.36229,-0.367574 0.855,-0.367574 z m 0.0145,4.478403 q 0.0434,0.255051 0.18839,0.390078 0.15216,0.135027 0.39851,0.135027 0.2536,0 0.4275,-0.187537 0.18114,-0.187538 0.18114,-0.442589 v -2.122929 z m 1.18829,-3.338173 q -0.13041,-0.517604 -0.60139,-0.517604 -0.24635,0 -0.42749,0.187537 -0.1739,0.180037 -0.1739,0.442589 v 2.122929 z"
         id="path20216"
         style="font-size:7.37251px;line-height:0;font-family:Silom;-inkscape-font-specification:'Silom, Normal';letter-spacing:6.27125px;opacity:0.940678;fill:#ffffff;stroke:#ffffff;stroke-width:1.32292;stroke-linecap:round;stroke-linejoin:round;stroke-miterlimit:0.2" />
      <path
         d="m 140.77846,47.81814 h 1.21003 q 0.49271,0 0.84775,0.375076 0.35504,0.367574 0.35504,0.877676 v 3.12063 q 0,0.510102 -0.35504,0.885178 -0.35504,0.367574 -0.84775,0.367574 h -1.21003 q -0.49271,0 -0.855,-0.367574 -0.35504,-0.367574 -0.35504,-0.885178 v -3.12063 q 0,-0.517604 0.35504,-0.885178 0.36229,-0.367574 0.855,-0.367574 z m 0.0145,4.478403 q 0.0434,0.255051 0.18839,0.390078 0.15216,0.135027 0.39851,0.135027 0.2536,0 0.4275,-0.187537 0.18114,-0.187538 0.18114,-0.442589 v -2.122929 z m 1.18829,-3.338173 q -0.13041,-0.517604 -0.60139,-0.517604 -0.24635,0 -0.42749,0.187537 -0.1739,0.180037 -0.1739,0.442589 v 2.122929 z"
         id="path20218"
         style="font-size:7.37251px;line-height:0;font-family:Silom;-inkscape-font-specification:'Silom, Normal';letter-spacing:6.27125px;opacity:0.940678;fill:#3771c8;stroke:#3771c8;stroke-width:0.79375;stroke-linecap:round;stroke-linejoin:round;stroke-miterlimit:0.2" />
      <path
         d="m 140.77846,47.81814 h 1.21003 q 0.49271,0 0.84775,0.375076 0.35504,0.367574 0.35504,0.877676 v 3.12063 q 0,0.510102 -0.35504,0.885178 -0.35504,0.367574 -0.84775,0.367574 h -1.21003 q -0.49271,0 -0.855,-0.367574 -0.35504,-0.367574 -0.35504,-0.885178 v -3.12063 q 0,-0.517604 0.35504,-0.885178 0.36229,-0.367574 0.855,-0.367574 z m 0.0145,4.478403 q 0.0434,0.255051 0.18839,0.390078 0.15216,0.135027 0.39851,0.135027 0.2536,0 0.4275,-0.187537 0.18114,-0.187538 0.18114,-0.442589 v -2.122929 z m 1.18829,-3.338173 q -0.13041,-0.517604 -0.60139,-0.517604 -0.24635,0 -0.42749,0.187537 -0.1739,0.180037 -0.1739,0.442589 v 2.122929 z"
         id="path20220"
         style="font-size:7.37251px;line-height:0;font-family:Silom;-inkscape-font-specification:'Silom, Normal';letter-spacing:6.27125px;opacity:0.940678;fill:#ffffff;stroke-width:0.264583;stroke-linecap:square;stroke-miterlimit:0.2" />
    </g>
    <g
       id="g20232"
       transform="rotate(-30,258.26759,-242.34206)">
      <path
         d="m 132.45967,48.817027 v 1.223836 q 0,0.250666 0.17694,0.434978 0.18432,0.184313 0.43498,0.184313 0.25804,0 0.43498,-0.184313 0.18431,-0.184312 0.18431,-0.434978 v -1.223836 q 0,-0.258038 -0.18431,-0.434978 -0.17694,-0.184313 -0.43498,-0.184313 -0.25066,0 -0.43498,0.184313 -0.17694,0.184312 -0.17694,0.434978 z m 1.23121,1.843127 q -0.0737,0.611919 -0.61929,0.611919 h -0.61192 q -0.50133,0 -0.86995,-0.361253 -0.36126,-0.361253 -0.36126,-0.869957 v -1.223836 q 0,-0.501331 0.36126,-0.862584 0.36862,-0.368625 0.86995,-0.368625 h 1.23121 q 0.50133,0 0.86259,0.368625 0.36125,0.361253 0.36125,0.862584 v 2.1454 q 0,0.884701 -0.63404,1.518737 -0.62666,0.634036 -1.51136,0.634036 h -0.92156 v -0.611918 h 0.61191 q 0.50871,0 0.86996,-0.361253 0.36125,-0.368626 0.36125,-0.869956 z"
         id="path20224"
         transform="matrix(0.85113254,0.4914016,-0.50874885,0.88117886,43.237386,-58.527943)"
         style="font-size:7.37251px;line-height:0;font-family:Silom;-inkscape-font-specification:'Silom, Normal';letter-spacing:6.27125px;opacity:0.85;stroke:#000000;stroke-width:1.32292;stroke-linecap:round;stroke-linejoin:round;stroke-miterlimit:0.2;filter:url(#filter14890)" />
      <path
         d="m 131.00994,48.809836 -0.62262,1.078419 q -0.12753,0.220881 -0.0707,0.470244 0.0631,0.252988 0.27646,0.376163 0.21962,0.1268 0.46399,0.05134 0.25065,-0.07184 0.37817,-0.292724 l 0.62263,-1.078419 q 0.13127,-0.227377 0.0644,-0.473863 -0.0568,-0.249362 -0.27646,-0.376162 -0.21334,-0.123175 -0.46399,-0.05134 -0.24437,0.07546 -0.3719,0.296343 z m 0.11024,2.229146 q -0.37402,0.503009 -0.83841,0.234889 l -0.52083,-0.3007 q -0.4267,-0.246355 -0.55666,-0.745824 -0.12369,-0.495853 0.13511,-0.944112 l 0.62263,-1.078419 q 0.25505,-0.441761 0.74632,-0.582565 0.50128,-0.143685 0.92798,0.10267 l 1.04792,0.60502 q 0.42669,0.24635 0.54664,0.7487 0.12368,0.495849 -0.13137,0.93761 l -1.09147,1.890482 q -0.45009,0.77958 -1.31231,1.026709 -0.85593,0.250759 -1.60893,-0.183986 l -0.78438,-0.45286 0.31132,-0.53921 0.52082,0.3007 q 0.43298,0.24998 0.92424,0.109172 0.49501,-0.147305 0.75006,-0.589067 z"
         id="path20226"
         style="font-size:7.37251px;line-height:0;font-family:Silom;-inkscape-font-specification:'Silom, Normal';letter-spacing:6.27125px;opacity:0.940678;fill:#ffffff;stroke:#ffffff;stroke-width:1.32292;stroke-linecap:round;stroke-linejoin:round;stroke-miterlimit:0.2" />
      <path
         d="m 131.00994,48.809836 -0.62262,1.078419 q -0.12753,0.220881 -0.0707,0.470244 0.0631,0.252988 0.27646,0.376163 0.21962,0.1268 0.46399,0.05134 0.25065,-0.07184 0.37817,-0.292724 l 0.62263,-1.078419 q 0.13127,-0.227377 0.0644,-0.473863 -0.0568,-0.249362 -0.27646,-0.376162 -0.21334,-0.123175 -0.46399,-0.05134 -0.24437,0.07546 -0.3719,0.296343 z m 0.11024,2.229146 q -0.37402,0.503009 -0.83841,0.234889 l -0.52083,-0.3007 q -0.4267,-0.246355 -0.55666,-0.745824 -0.12369,-0.495853 0.13511,-0.944112 l 0.62263,-1.078419 q 0.25505,-0.441761 0.74632,-0.582565 0.50128,-0.143685 0.92798,0.10267 l 1.04792,0.60502 q 0.42669,0.24635 0.54664,0.7487 0.12368,0.495849 -0.13137,0.93761 l -1.09147,1.890482 q -0.45009,0.77958 -1.31231,1.026709 -0.85593,0.250759 -1.60893,-0.183986 l -0.78438,-0.45286 0.31132,-0.53921 0.52082,0.3007 q 0.43298,0.24998 0.92424,0.109172 0.49501,-0.147305 0.75006,-0.589067 z"
         id="path20228"
         style="font-size:7.37251px;line-height:0;font-family:Silom;-inkscape-font-specification:'Silom, Normal';letter-spacing:6.27125px;opacity:0.940678;fill:#3771c8;stroke:#3771c8;stroke-width:0.79375;stroke-linecap:round;stroke-linejoin:round;stroke-miterlimit:0.2" />
      <path
         d="m 131.00994,48.809836 -0.62262,1.078419 q -0.12753,0.220881 -0.0707,0.470244 0.0631,0.252988 0.27646,0.376163 0.21962,0.1268 0.46399,0.05134 0.25065,-0.07184 0.37817,-0.292724 l 0.62263,-1.078419 q 0.13127,-0.227377 0.0644,-0.473863 -0.0568,-0.249362 -0.27646,-0.376162 -0.21334,-0.123175 -0.46399,-0.05134 -0.24437,0.07546 -0.3719,0.296343 z m 0.11024,2.229146 q -0.37402,0.503009 -0.83841,0.234889 l -0.52083,-0.3007 q -0.4267,-0.246355 -0.55666,-0.745824 -0.12369,-0.495853 0.13511,-0.944112 l 0.62263,-1.078419 q 0.25505,-0.441761 0.74632,-0.582565 0.50128,-0.143685 0.92798,0.10267 l 1.04792,0.60502 q 0.42669,0.24635 0.54664,0.7487 0.12368,0.495849 -0.13137,0.93761 l -1.09147,1.890482 q -0.45009,0.77958 -1.31231,1.026709 -0.85593,0.250759 -1.60893,-0.183986 l -0.78438,-0.45286 0.31132,-0.53921 0.52082,0.3007 q 0.43298,0.24998 0.92424,0.109172 0.49501,-0.147305 0.75006,-0.589067 z"
         id="path20230"
         style="font-size:7.37251px;line-height:0;font-family:Silom;-inkscape-font-specification:'Silom, Normal';letter-spacing:6.27125px;opacity:0.940678;fill:#ffffff;stroke-width:0.264583;stroke-linecap:square;stroke-miterlimit:0.2" />
    </g>
    <g
       id="g20242"
       transform="translate(170.7322,24.961059)">
      <path
         d="m 122.50217,50.660154 v -0.619291 q 0,-0.250665 -0.18431,-0.427605 -0.17694,-0.184313 -0.43498,-0.184313 h -0.61192 q -0.54556,0 -0.61192,0.611918 h -0.61929 q 0.14745,-1.223836 1.23121,-1.223836 h 1.23121 q 0.50133,0 0.86258,0.361253 0.36126,0.361253 0.36126,0.862583 V 53.1152 h -1.22384 v -0.611918 q -0.0737,0.611918 -0.61929,0.611918 h -0.61192 q -0.50133,0 -0.86996,-0.361253 -0.36125,-0.361253 -0.36125,-0.869956 v 0 q 0,-0.501331 0.36125,-0.862584 0.36863,-0.361253 0.86996,-0.361253 z m 0,0.611919 h -0.61929 q -0.25067,0 -0.43498,0.184312 -0.17694,0.176941 -0.17694,0.427606 v 0 q 0,0.250665 0.17694,0.434978 0.18431,0.184313 0.43498,0.184313 0.25804,0 0.43498,-0.184313 0.18431,-0.184313 0.18431,-0.434978 z"
         id="path20234"
         transform="matrix(0.9828032,0,0,1.0174977,0.09999851,-7.3705751e-5)"
         style="font-size:7.37251px;line-height:0;font-family:Silom;-inkscape-font-specification:'Silom, Normal';letter-spacing:6.27125px;opacity:0.85;stroke:#000000;stroke-width:1.32292;stroke-linecap:round;stroke-linejoin:round;stroke-miterlimit:0.2;filter:url(#filter14890)" />
      <path
         d="m 119.99589,50.946271 v -0.630128 q 0,-0.255051 -0.18114,-0.435088 -0.1739,-0.187537 -0.4275,-0.187537 h -0.6014 q -0.53619,0 -0.6014,0.622625 h -0.60864 q 0.14492,-1.245251 1.21004,-1.245251 h 1.21004 q 0.4927,0 0.84774,0.367574 0.35505,0.367574 0.35505,0.877677 v 3.128131 h -1.20279 v -0.622626 q -0.0724,0.622626 -0.60864,0.622626 h -0.6014 q -0.49271,0 -0.855,-0.367574 -0.35504,-0.367574 -0.35504,-0.885178 v 0 q 0,-0.510103 0.35504,-0.877677 0.36229,-0.367574 0.855,-0.367574 z m 0,0.622625 h -0.60864 q -0.24636,0 -0.4275,0.187538 -0.1739,0.180036 -0.1739,0.435088 v 0 q 0,0.255051 0.1739,0.442589 0.18114,0.187537 0.4275,0.187537 0.2536,0 0.4275,-0.187537 0.18114,-0.187538 0.18114,-0.442589 z"
         id="path20236"
         style="font-size:7.37251px;line-height:0;font-family:Silom;-inkscape-font-specification:'Silom, Normal';letter-spacing:6.27125px;opacity:0.940678;fill:#ffffff;stroke:#ffffff;stroke-width:1.32292;stroke-linecap:round;stroke-linejoin:round;stroke-miterlimit:0.2" />
      <path
         d="m 119.99589,50.946271 v -0.630128 q 0,-0.255051 -0.18114,-0.435088 -0.1739,-0.187537 -0.4275,-0.187537 h -0.6014 q -0.53619,0 -0.6014,0.622625 h -0.60864 q 0.14492,-1.245251 1.21004,-1.245251 h 1.21004 q 0.4927,0 0.84774,0.367574 0.35505,0.367574 0.35505,0.877677 v 3.128131 h -1.20279 v -0.622626 q -0.0724,0.622626 -0.60864,0.622626 h -0.6014 q -0.49271,0 -0.855,-0.367574 -0.35504,-0.367574 -0.35504,-0.885178 v 0 q 0,-0.510103 0.35504,-0.877677 0.36229,-0.367574 0.855,-0.367574 z m 0,0.622625 h -0.60864 q -0.24636,0 -0.4275,0.187538 -0.1739,0.180036 -0.1739,0.435088 v 0 q 0,0.255051 0.1739,0.442589 0.18114,0.187537 0.4275,0.187537 0.2536,0 0.4275,-0.187537 0.18114,-0.187538 0.18114,-0.442589 z"
         id="path20238"
         style="font-size:7.37251px;line-height:0;font-family:Silom;-inkscape-font-specification:'Silom, Normal';letter-spacing:6.27125px;opacity:0.940678;fill:#3771c8;stroke:#3771c8;stroke-width:0.79375;stroke-linecap:round;stroke-linejoin:round;stroke-miterlimit:0.2" />
      <path
         d="m 119.99589,50.946271 v -0.630128 q 0,-0.255051 -0.18114,-0.435088 -0.1739,-0.187537 -0.4275,-0.187537 h -0.6014 q -0.53619,0 -0.6014,0.622625 h -0.60864 q 0.14492,-1.245251 1.21004,-1.245251 h 1.21004 q 0.4927,0 0.84774,0.367574 0.35505,0.367574 0.35505,0.877677 v 3.128131 h -1.20279 v -0.622626 q -0.0724,0.622626 -0.60864,0.622626 h -0.6014 q -0.49271,0 -0.855,-0.367574 -0.35504,-0.367574 -0.35504,-0.885178 v 0 q 0,-0.510103 0.35504,-0.877677 0.36229,-0.367574 0.855,-0.367574 z m 0,0.622625 h -0.60864 q -0.24636,0 -0.4275,0.187538 -0.1739,0.180036 -0.1739,0.435088 v 0 q 0,0.255051 0.1739,0.442589 0.18114,0.187537 0.4275,0.187537 0.2536,0 0.4275,-0.187537 0.18114,-0.187538 0.18114,-0.442589 z"
         id="path20240"
         style="font-size:7.37251px;line-height:0;font-family:Silom;-inkscape-font-specification:'Silom, Normal';letter-spacing:6.27125px;opacity:0.940678;fill:#ffffff;stroke-width:0.264583;stroke-linecap:square;stroke-miterlimit:0.2" />
    </g>
    <g
       id="g20252"
       transform="translate(177.61137,24.360809)">
      <path
         d="m 106.396,48.817027 h 1.23121 v 3.686255 h 0.61192 q 0.25804,0 0.43498,-0.184313 0.18431,-0.184313 0.18431,-0.434978 v -3.066964 h 1.22384 v 3.686255 h 0.61929 q 0.25067,0 0.42761,-0.184313 0.18431,-0.184313 0.18431,-0.434978 v -3.066964 h 1.23121 v 2.197008 q 0,0.862583 -0.61929,1.481874 -0.61192,0.619291 -1.48188,0.619291 h -1.58509 V 52.923515 Q 108.50454,53.1152 107.98847,53.1152 H 106.396 Z"
         id="path20244"
         transform="matrix(0.9828032,0,0,1.0174977,0.09999851,-7.3705751e-5)"
         style="font-size:7.37251px;line-height:0;font-family:Silom;-inkscape-font-specification:'Silom, Normal';letter-spacing:6.27125px;opacity:0.85;stroke:#000000;stroke-width:1.32292;stroke-linecap:round;stroke-linejoin:round;stroke-miterlimit:0.2;filter:url(#filter14890)" />
      <path
         d="m 104.16669,49.070892 h 1.21004 v 3.750756 h 0.60139 q 0.25361,0 0.4275,-0.187537 0.18115,-0.187538 0.18115,-0.442589 v -3.12063 h 1.20279 v 3.750756 h 0.60864 q 0.24635,0 0.42025,-0.187537 0.18115,-0.187538 0.18115,-0.442589 v -3.12063 h 1.21003 v 2.235451 q 0,0.877677 -0.60864,1.507804 -0.60139,0.630127 -1.45639,0.630127 h -1.55783 v -0.19504 q -0.3478,0.19504 -0.85499,0.19504 h -1.56509 z"
         id="path20246"
         style="font-size:7.37251px;line-height:0;font-family:Silom;-inkscape-font-specification:'Silom, Normal';letter-spacing:6.27125px;opacity:0.940678;fill:#ffffff;stroke:#ffffff;stroke-width:1.32292;stroke-linecap:round;stroke-linejoin:round;stroke-miterlimit:0.2" />
      <path
         d="m 104.16669,49.070892 h 1.21004 v 3.750756 h 0.60139 q 0.25361,0 0.4275,-0.187537 0.18115,-0.187538 0.18115,-0.442589 v -3.12063 h 1.20279 v 3.750756 h 0.60864 q 0.24635,0 0.42025,-0.187537 0.18115,-0.187538 0.18115,-0.442589 v -3.12063 h 1.21003 v 2.235451 q 0,0.877677 -0.60864,1.507804 -0.60139,0.630127 -1.45639,0.630127 h -1.55783 v -0.19504 q -0.3478,0.19504 -0.85499,0.19504 h -1.56509 z"
         id="path20248"
         style="font-size:7.37251px;line-height:0;font-family:Silom;-inkscape-font-specification:'Silom, Normal';letter-spacing:6.27125px;opacity:0.940678;fill:#3771c8;stroke:#3771c8;stroke-width:0.79375;stroke-linecap:round;stroke-linejoin:round;stroke-miterlimit:0.2" />
      <path
         d="m 104.16669,49.070892 h 1.21004 v 3.750756 h 0.60139 q 0.25361,0 0.4275,-0.187537 0.18115,-0.187538 0.18115,-0.442589 v -3.12063 h 1.20279 v 3.750756 h 0.60864 q 0.24635,0 0.42025,-0.187537 0.18115,-0.187538 0.18115,-0.442589 v -3.12063 h 1.21003 v 2.235451 q 0,0.877677 -0.60864,1.507804 -0.60139,0.630127 -1.45639,0.630127 h -1.55783 v -0.19504 q -0.3478,0.19504 -0.85499,0.19504 h -1.56509 z"
         id="path20250"
         style="font-size:7.37251px;line-height:0;font-family:Silom;-inkscape-font-specification:'Silom, Normal';letter-spacing:6.27125px;opacity:0.940678;fill:#ffffff;stroke-width:0.264583;stroke-linecap:square;stroke-miterlimit:0.2" />
    </g>
    <g
       id="g20262"
       transform="translate(183.96137,24.961059)">
      <path
         d="m 97.669722,53.1152 v -5.529382 h 1.23121 V 53.1152 Z"
         id="path20254"
         transform="matrix(0.9828032,0,0,1.0174977,0.09999851,-7.3705751e-5)"
         style="font-size:7.37251px;line-height:0;font-family:Silom;-inkscape-font-specification:'Silom, Normal';letter-spacing:6.27125px;opacity:0.85;stroke:#000000;stroke-width:1.32292;stroke-linecap:round;stroke-linejoin:round;stroke-miterlimit:0.2;filter:url(#filter14890)" />
      <path
         d="M 95.590476,53.444274 V 47.81814 h 1.210036 v 5.626134 z"
         id="path20256"
         style="font-size:7.37251px;line-height:0;font-family:Silom;-inkscape-font-specification:'Silom, Normal';letter-spacing:6.27125px;opacity:0.940678;fill:#ffffff;stroke:#ffffff;stroke-width:1.32292;stroke-linecap:round;stroke-linejoin:round;stroke-miterlimit:0.2" />
      <path
         d="M 95.590476,53.444274 V 47.81814 h 1.210036 v 5.626134 z"
         id="path20258"
         style="font-size:7.37251px;line-height:0;font-family:Silom;-inkscape-font-specification:'Silom, Normal';letter-spacing:6.27125px;opacity:0.940678;fill:#3771c8;stroke:#3771c8;stroke-width:0.79375;stroke-linecap:round;stroke-linejoin:round;stroke-miterlimit:0.2" />
      <path
         d="M 95.590476,53.444274 V 47.81814 h 1.210036 v 5.626134 z"
         id="path20260"
         style="font-size:7.37251px;line-height:0;font-family:Silom;-inkscape-font-specification:'Silom, Normal';letter-spacing:6.27125px;opacity:0.940678;fill:#ffffff;stroke-width:0.264583;stroke-linecap:square;stroke-miterlimit:0.2" />
    </g>
    <g
       id="g20272"
       transform="translate(190.31138,24.360809)">
      <path
         d="m 88.943438,48.197736 v -0.611918 h 1.23121 v 0.611918 z m 0,4.917464 v -4.298173 h 1.23121 V 53.1152 Z"
         id="path20264"
         transform="matrix(0.9828032,0,0,1.0174977,0.09999851,-7.3705751e-5)"
         style="font-size:7.37251px;line-height:0;font-family:Silom;-inkscape-font-specification:'Silom, Normal';letter-spacing:6.27125px;opacity:0.85;stroke:#000000;stroke-width:1.32292;stroke-linecap:round;stroke-linejoin:round;stroke-miterlimit:0.2;filter:url(#filter14890)" />
      <path
         d="M 87.014256,48.440766 V 47.81814 h 1.210036 v 0.622626 z m 0,5.003508 v -4.373382 h 1.210036 v 4.373382 z"
         id="path20266"
         style="font-size:7.37251px;line-height:0;font-family:Silom;-inkscape-font-specification:'Silom, Normal';letter-spacing:6.27125px;opacity:0.940678;fill:#ffffff;stroke:#ffffff;stroke-width:1.32292;stroke-linecap:round;stroke-linejoin:round;stroke-miterlimit:0.2" />
      <path
         d="M 87.014256,48.440766 V 47.81814 h 1.210036 v 0.622626 z m 0,5.003508 v -4.373382 h 1.210036 v 4.373382 z"
         id="path20268"
         style="font-size:7.37251px;line-height:0;font-family:Silom;-inkscape-font-specification:'Silom, Normal';letter-spacing:6.27125px;opacity:0.940678;fill:#3771c8;stroke:#3771c8;stroke-width:0.79375;stroke-linecap:round;stroke-linejoin:round;stroke-miterlimit:0.2" />
      <path
         d="M 87.014256,48.440766 V 47.81814 h 1.210036 v 0.622626 z m 0,5.003508 v -4.373382 h 1.210036 v 4.373382 z"
         id="path20270"
         style="font-size:7.37251px;line-height:0;font-family:Silom;-inkscape-font-specification:'Silom, Normal';letter-spacing:6.27125px;opacity:0.940678;fill:#ffffff;stroke-width:0.264583;stroke-linecap:square;stroke-miterlimit:0.2" />
    </g>
    <g
       id="g20282"
       transform="translate(196.66138,24.961059)">
      <path
         d="m 75.299693,47.585818 h 1.231209 v 4.917464 h 0.611918 q 0.258038,0 0.434979,-0.184313 0.184312,-0.184313 0.184312,-0.434978 v -4.298173 h 1.223837 v 4.917464 h 0.619291 q 0.250665,0 0.427605,-0.184313 0.184313,-0.184313 0.184313,-0.434978 v -4.298173 h 1.231209 v 3.428217 q 0,0.862583 -0.619291,1.481874 -0.611918,0.619291 -1.481874,0.619291 h -1.58509 V 52.923515 Q 77.408231,53.1152 76.892155,53.1152 h -1.592462 z"
         id="path20274"
         transform="matrix(0.9828032,0,0,1.0174977,0.09999851,-7.3705751e-5)"
         style="font-size:7.37251px;line-height:0;font-family:Silom;-inkscape-font-specification:'Silom, Normal';letter-spacing:6.27125px;opacity:0.85;stroke:#000000;stroke-width:1.32292;stroke-linecap:round;stroke-linejoin:round;stroke-miterlimit:0.2;filter:url(#filter14890)" />
      <path
         d="m 73.60514,47.81814 h 1.210036 v 5.003508 h 0.601395 q 0.253601,0 0.427498,-0.187537 0.181144,-0.187538 0.181144,-0.442589 V 47.81814 h 1.202789 v 5.003508 h 0.608642 q 0.246355,0 0.420252,-0.187537 0.181144,-0.187538 0.181144,-0.442589 V 47.81814 h 1.210036 v 3.488203 q 0,0.877677 -0.608641,1.507804 -0.601395,0.630127 -1.456392,0.630127 h -1.55783 v -0.19504 q -0.347796,0.19504 -0.854996,0.19504 H 73.60514 Z"
         id="path20276"
         style="font-size:7.37251px;line-height:0;font-family:Silom;-inkscape-font-specification:'Silom, Normal';letter-spacing:6.27125px;opacity:0.940678;fill:#ffffff;stroke:#ffffff;stroke-width:1.32292;stroke-linecap:round;stroke-linejoin:round;stroke-miterlimit:0.2" />
      <path
         d="m 73.60514,47.81814 h 1.210036 v 5.003508 h 0.601395 q 0.253601,0 0.427498,-0.187537 0.181144,-0.187538 0.181144,-0.442589 V 47.81814 h 1.202789 v 5.003508 h 0.608642 q 0.246355,0 0.420252,-0.187537 0.181144,-0.187538 0.181144,-0.442589 V 47.81814 h 1.210036 v 3.488203 q 0,0.877677 -0.608641,1.507804 -0.601395,0.630127 -1.456392,0.630127 h -1.55783 v -0.19504 q -0.347796,0.19504 -0.854996,0.19504 H 73.60514 Z"
         id="path20278"
         style="font-size:7.37251px;line-height:0;font-family:Silom;-inkscape-font-specification:'Silom, Normal';letter-spacing:6.27125px;opacity:0.940678;fill:#3771c8;stroke:#3771c8;stroke-width:0.79375;stroke-linecap:round;stroke-linejoin:round;stroke-miterlimit:0.2" />
      <path
         d="m 73.60514,47.81814 h 1.210036 v 5.003508 h 0.601395 q 0.253601,0 0.427498,-0.187537 0.181144,-0.187538 0.181144,-0.442589 V 47.81814 h 1.202789 v 5.003508 h 0.608642 q 0.246355,0 0.420252,-0.187537 0.181144,-0.187538 0.181144,-0.442589 V 47.81814 h 1.210036 v 3.488203 q 0,0.877677 -0.608641,1.507804 -0.601395,0.630127 -1.456392,0.630127 h -1.55783 v -0.19504 q -0.347796,0.19504 -0.854996,0.19504 H 73.60514 Z"
         id="path20280"
         style="font-size:7.37251px;line-height:0;font-family:Silom;-inkscape-font-specification:'Silom, Normal';letter-spacing:6.27125px;opacity:0.940678;fill:#ffffff;stroke-width:0.264583;stroke-linecap:square;stroke-miterlimit:0.2" />
    </g>
    <g
       id="g23507"
       transform="matrix(2.9326983,1.1943614,-1.5659406,2.2368037,-218.58731,-252.53609)"
       style="stroke-width:0.344415">
      <path
         d="m 153.60589,47.585818 h 3.68626 v 1.231209 l -0.30228,0.611918 -0.30964,0.611918 q -0.61192,1.297562 -0.61192,1.843128 V 53.1152 h -1.23121 v -1.231209 q 0,-0.611918 0.61192,-1.843128 l 0.61929,-1.223836 v -0.619291 h -2.46242 z"
         id="path23499"
         transform="matrix(0.9828032,0,0,1.0174977,0.09999851,-7.3705751e-5)"
         style="font-size:7.37251px;line-height:0;font-family:Silom;-inkscape-font-specification:'Silom, Normal';letter-spacing:6.27125px;opacity:0.85;stroke:#000000;stroke-width:0.455634;stroke-linecap:round;stroke-linejoin:round;stroke-miterlimit:0.2;filter:url(#filter14890)" />
      <path
         d="m 150.56472,47.81814 h 3.62286 v 1.252752 l -0.29707,0.622626 -0.30432,0.622625 q -0.60139,1.320267 -0.60139,1.875379 v 1.252752 h -1.21004 v -1.252752 q 0,-0.622626 0.6014,-1.875379 l 0.60864,-1.245251 v -0.630126 h -2.42008 z"
         id="path23501"
         style="font-size:7.37251px;line-height:0;font-family:Silom;-inkscape-font-specification:'Silom, Normal';letter-spacing:6.27125px;opacity:0.940678;fill:#ffffff;stroke:#ffffff;stroke-width:0.455634;stroke-linecap:round;stroke-linejoin:round;stroke-miterlimit:0.2" />
      <path
         d="m 150.56472,47.81814 h 3.62286 v 1.252752 l -0.29707,0.622626 -0.30432,0.622625 q -0.60139,1.320267 -0.60139,1.875379 v 1.252752 h -1.21004 v -1.252752 q 0,-0.622626 0.6014,-1.875379 l 0.60864,-1.245251 v -0.630126 h -2.42008 z"
         id="path23503"
         style="font-size:7.37251px;line-height:0;font-family:Silom;-inkscape-font-specification:'Silom, Normal';letter-spacing:6.27125px;opacity:0.940678;fill:#3771c8;stroke:#3771c8;stroke-width:0.273379;stroke-linecap:round;stroke-linejoin:round;stroke-miterlimit:0.2" />
      <path
         d="m 150.56472,47.81814 h 3.62286 v 1.252752 l -0.29707,0.622626 -0.30432,0.622625 q -0.60139,1.320267 -0.60139,1.875379 v 1.252752 h -1.21004 v -1.252752 q 0,-0.622626 0.6014,-1.875379 l 0.60864,-1.245251 v -0.630126 h -2.42008 z"
         id="path23505"
         style="font-size:7.37251px;line-height:0;font-family:Silom;-inkscape-font-specification:'Silom, Normal';letter-spacing:6.27125px;opacity:0.940678;fill:#ffffff;stroke-width:0.0911263;stroke-linecap:square;stroke-miterlimit:0.2" />
    </g>
    <g
       id="g23517"
       transform="matrix(2.8791782,1.2678515,-1.6622943,2.1959833,-184.17702,-248.26715)"
       style="stroke-width:0.344415">
      <path
         d="m 143.64839,47.585818 h 1.23121 q 0.50133,0 0.86258,0.368625 0.36125,0.361253 0.36125,0.862584 v 3.066964 q 0,0.501331 -0.36125,0.869956 -0.36125,0.361253 -0.86258,0.361253 h -1.23121 q -0.50133,0 -0.86996,-0.361253 -0.36125,-0.361253 -0.36125,-0.869956 v -3.066964 q 0,-0.508703 0.36125,-0.869956 0.36863,-0.361253 0.86996,-0.361253 z m 0.0147,4.401388 q 0.0442,0.250665 0.19169,0.383371 0.15482,0.132705 0.40549,0.132705 0.25803,0 0.43497,-0.184313 0.18432,-0.184313 0.18432,-0.434978 v -2.08642 z m 1.20909,-3.280767 q -0.1327,-0.508703 -0.61191,-0.508703 -0.25067,0 -0.43498,0.184313 -0.17694,0.17694 -0.17694,0.434978 v 2.08642 z"
         id="path23509"
         transform="matrix(0.9828032,0,0,1.0174977,0.09999851,-7.3705751e-5)"
         style="font-size:7.37251px;line-height:0;font-family:Silom;-inkscape-font-specification:'Silom, Normal';letter-spacing:6.27125px;opacity:0.85;stroke:#000000;stroke-width:0.455634;stroke-linecap:round;stroke-linejoin:round;stroke-miterlimit:0.2;filter:url(#filter14890)" />
      <path
         d="m 140.77846,47.81814 h 1.21003 q 0.49271,0 0.84775,0.375076 0.35504,0.367574 0.35504,0.877676 v 3.12063 q 0,0.510102 -0.35504,0.885178 -0.35504,0.367574 -0.84775,0.367574 h -1.21003 q -0.49271,0 -0.855,-0.367574 -0.35504,-0.367574 -0.35504,-0.885178 v -3.12063 q 0,-0.517604 0.35504,-0.885178 0.36229,-0.367574 0.855,-0.367574 z m 0.0145,4.478403 q 0.0434,0.255051 0.18839,0.390078 0.15216,0.135027 0.39851,0.135027 0.2536,0 0.4275,-0.187537 0.18114,-0.187538 0.18114,-0.442589 v -2.122929 z m 1.18829,-3.338173 q -0.13041,-0.517604 -0.60139,-0.517604 -0.24635,0 -0.42749,0.187537 -0.1739,0.180037 -0.1739,0.442589 v 2.122929 z"
         id="path23511"
         style="font-size:7.37251px;line-height:0;font-family:Silom;-inkscape-font-specification:'Silom, Normal';letter-spacing:6.27125px;opacity:0.940678;fill:#ffffff;stroke:#ffffff;stroke-width:0.455634;stroke-linecap:round;stroke-linejoin:round;stroke-miterlimit:0.2" />
      <path
         d="m 140.77846,47.81814 h 1.21003 q 0.49271,0 0.84775,0.375076 0.35504,0.367574 0.35504,0.877676 v 3.12063 q 0,0.510102 -0.35504,0.885178 -0.35504,0.367574 -0.84775,0.367574 h -1.21003 q -0.49271,0 -0.855,-0.367574 -0.35504,-0.367574 -0.35504,-0.885178 v -3.12063 q 0,-0.517604 0.35504,-0.885178 0.36229,-0.367574 0.855,-0.367574 z m 0.0145,4.478403 q 0.0434,0.255051 0.18839,0.390078 0.15216,0.135027 0.39851,0.135027 0.2536,0 0.4275,-0.187537 0.18114,-0.187538 0.18114,-0.442589 v -2.122929 z m 1.18829,-3.338173 q -0.13041,-0.517604 -0.60139,-0.517604 -0.24635,0 -0.42749,0.187537 -0.1739,0.180037 -0.1739,0.442589 v 2.122929 z"
         id="path23513"
         style="font-size:7.37251px;line-height:0;font-family:Silom;-inkscape-font-specification:'Silom, Normal';letter-spacing:6.27125px;opacity:0.940678;fill:#3771c8;stroke:#3771c8;stroke-width:0.273379;stroke-linecap:round;stroke-linejoin:round;stroke-miterlimit:0.2" />
      <path
         d="m 140.77846,47.81814 h 1.21003 q 0.49271,0 0.84775,0.375076 0.35504,0.367574 0.35504,0.877676 v 3.12063 q 0,0.510102 -0.35504,0.885178 -0.35504,0.367574 -0.84775,0.367574 h -1.21003 q -0.49271,0 -0.855,-0.367574 -0.35504,-0.367574 -0.35504,-0.885178 v -3.12063 q 0,-0.517604 0.35504,-0.885178 0.36229,-0.367574 0.855,-0.367574 z m 0.0145,4.478403 q 0.0434,0.255051 0.18839,0.390078 0.15216,0.135027 0.39851,0.135027 0.2536,0 0.4275,-0.187537 0.18114,-0.187538 0.18114,-0.442589 v -2.122929 z m 1.18829,-3.338173 q -0.13041,-0.517604 -0.60139,-0.517604 -0.24635,0 -0.42749,0.187537 -0.1739,0.180037 -0.1739,0.442589 v 2.122929 z"
         id="path23515"
         style="font-size:7.37251px;line-height:0;font-family:Silom;-inkscape-font-specification:'Silom, Normal';letter-spacing:6.27125px;opacity:0.940678;fill:#ffffff;stroke-width:0.0911263;stroke-linecap:square;stroke-miterlimit:0.2" />
    </g>
    <g
       id="g23527"
       transform="matrix(3.3245886,0,0,2.5357031,-310.33659,-85.789354)"
       style="stroke-width:0.344415">
      <path
         d="m 132.45967,48.817027 v 1.223836 q 0,0.250666 0.17694,0.434978 0.18432,0.184313 0.43498,0.184313 0.25804,0 0.43498,-0.184313 0.18431,-0.184312 0.18431,-0.434978 v -1.223836 q 0,-0.258038 -0.18431,-0.434978 -0.17694,-0.184313 -0.43498,-0.184313 -0.25066,0 -0.43498,0.184313 -0.17694,0.184312 -0.17694,0.434978 z m 1.23121,1.843127 q -0.0737,0.611919 -0.61929,0.611919 h -0.61192 q -0.50133,0 -0.86995,-0.361253 -0.36126,-0.361253 -0.36126,-0.869957 v -1.223836 q 0,-0.501331 0.36126,-0.862584 0.36862,-0.368625 0.86995,-0.368625 h 1.23121 q 0.50133,0 0.86259,0.368625 0.36125,0.361253 0.36125,0.862584 v 2.1454 q 0,0.884701 -0.63404,1.518737 -0.62666,0.634036 -1.51136,0.634036 h -0.92156 v -0.611918 h 0.61191 q 0.50871,0 0.86996,-0.361253 0.36125,-0.368626 0.36125,-0.869956 z"
         id="path23519"
         transform="matrix(0.85113254,0.4914016,-0.50874885,0.88117886,43.237386,-58.527943)"
         style="font-size:7.37251px;line-height:0;font-family:Silom;-inkscape-font-specification:'Silom, Normal';letter-spacing:6.27125px;opacity:0.85;stroke:#000000;stroke-width:0.455634;stroke-linecap:round;stroke-linejoin:round;stroke-miterlimit:0.2;filter:url(#filter14890)" />
      <path
         d="m 131.00994,48.809836 -0.62262,1.078419 q -0.12753,0.220881 -0.0707,0.470244 0.0631,0.252988 0.27646,0.376163 0.21962,0.1268 0.46399,0.05134 0.25065,-0.07184 0.37817,-0.292724 l 0.62263,-1.078419 q 0.13127,-0.227377 0.0644,-0.473863 -0.0568,-0.249362 -0.27646,-0.376162 -0.21334,-0.123175 -0.46399,-0.05134 -0.24437,0.07546 -0.3719,0.296343 z m 0.11024,2.229146 q -0.37402,0.503009 -0.83841,0.234889 l -0.52083,-0.3007 q -0.4267,-0.246355 -0.55666,-0.745824 -0.12369,-0.495853 0.13511,-0.944112 l 0.62263,-1.078419 q 0.25505,-0.441761 0.74632,-0.582565 0.50128,-0.143685 0.92798,0.10267 l 1.04792,0.60502 q 0.42669,0.24635 0.54664,0.7487 0.12368,0.495849 -0.13137,0.93761 l -1.09147,1.890482 q -0.45009,0.77958 -1.31231,1.026709 -0.85593,0.250759 -1.60893,-0.183986 l -0.78438,-0.45286 0.31132,-0.53921 0.52082,0.3007 q 0.43298,0.24998 0.92424,0.109172 0.49501,-0.147305 0.75006,-0.589067 z"
         id="path23521"
         style="font-size:7.37251px;line-height:0;font-family:Silom;-inkscape-font-specification:'Silom, Normal';letter-spacing:6.27125px;opacity:0.940678;fill:#ffffff;stroke:#ffffff;stroke-width:0.455634;stroke-linecap:round;stroke-linejoin:round;stroke-miterlimit:0.2" />
      <path
         d="m 131.00994,48.809836 -0.62262,1.078419 q -0.12753,0.220881 -0.0707,0.470244 0.0631,0.252988 0.27646,0.376163 0.21962,0.1268 0.46399,0.05134 0.25065,-0.07184 0.37817,-0.292724 l 0.62263,-1.078419 q 0.13127,-0.227377 0.0644,-0.473863 -0.0568,-0.249362 -0.27646,-0.376162 -0.21334,-0.123175 -0.46399,-0.05134 -0.24437,0.07546 -0.3719,0.296343 z m 0.11024,2.229146 q -0.37402,0.503009 -0.83841,0.234889 l -0.52083,-0.3007 q -0.4267,-0.246355 -0.55666,-0.745824 -0.12369,-0.495853 0.13511,-0.944112 l 0.62263,-1.078419 q 0.25505,-0.441761 0.74632,-0.582565 0.50128,-0.143685 0.92798,0.10267 l 1.04792,0.60502 q 0.42669,0.24635 0.54664,0.7487 0.12368,0.495849 -0.13137,0.93761 l -1.09147,1.890482 q -0.45009,0.77958 -1.31231,1.026709 -0.85593,0.250759 -1.60893,-0.183986 l -0.78438,-0.45286 0.31132,-0.53921 0.52082,0.3007 q 0.43298,0.24998 0.92424,0.109172 0.49501,-0.147305 0.75006,-0.589067 z"
         id="path23523"
         style="font-size:7.37251px;line-height:0;font-family:Silom;-inkscape-font-specification:'Silom, Normal';letter-spacing:6.27125px;opacity:0.940678;fill:#3771c8;stroke:#3771c8;stroke-width:0.273379;stroke-linecap:round;stroke-linejoin:round;stroke-miterlimit:0.2" />
      <path
         d="m 131.00994,48.809836 -0.62262,1.078419 q -0.12753,0.220881 -0.0707,0.470244 0.0631,0.252988 0.27646,0.376163 0.21962,0.1268 0.46399,0.05134 0.25065,-0.07184 0.37817,-0.292724 l 0.62263,-1.078419 q 0.13127,-0.227377 0.0644,-0.473863 -0.0568,-0.249362 -0.27646,-0.376162 -0.21334,-0.123175 -0.46399,-0.05134 -0.24437,0.07546 -0.3719,0.296343 z m 0.11024,2.229146 q -0.37402,0.503009 -0.83841,0.234889 l -0.52083,-0.3007 q -0.4267,-0.246355 -0.55666,-0.745824 -0.12369,-0.495853 0.13511,-0.944112 l 0.62263,-1.078419 q 0.25505,-0.441761 0.74632,-0.582565 0.50128,-0.143685 0.92798,0.10267 l 1.04792,0.60502 q 0.42669,0.24635 0.54664,0.7487 0.12368,0.495849 -0.13137,0.93761 l -1.09147,1.890482 q -0.45009,0.77958 -1.31231,1.026709 -0.85593,0.250759 -1.60893,-0.183986 l -0.78438,-0.45286 0.31132,-0.53921 0.52082,0.3007 q 0.43298,0.24998 0.92424,0.109172 0.49501,-0.147305 0.75006,-0.589067 z"
         id="path23525"
         style="font-size:7.37251px;line-height:0;font-family:Silom;-inkscape-font-specification:'Silom, Normal';letter-spacing:6.27125px;opacity:0.940678;fill:#ffffff;stroke-width:0.0911263;stroke-linecap:square;stroke-miterlimit:0.2" />
    </g>
    <g
       id="g23537"
       transform="matrix(3.3245886,0,0,2.5357031,-287.46617,-85.789354)"
       style="stroke-width:0.344415">
      <path
         d="m 122.50217,50.660154 v -0.619291 q 0,-0.250665 -0.18431,-0.427605 -0.17694,-0.184313 -0.43498,-0.184313 h -0.61192 q -0.54556,0 -0.61192,0.611918 h -0.61929 q 0.14745,-1.223836 1.23121,-1.223836 h 1.23121 q 0.50133,0 0.86258,0.361253 0.36126,0.361253 0.36126,0.862583 V 53.1152 h -1.22384 v -0.611918 q -0.0737,0.611918 -0.61929,0.611918 h -0.61192 q -0.50133,0 -0.86996,-0.361253 -0.36125,-0.361253 -0.36125,-0.869956 v 0 q 0,-0.501331 0.36125,-0.862584 0.36863,-0.361253 0.86996,-0.361253 z m 0,0.611919 h -0.61929 q -0.25067,0 -0.43498,0.184312 -0.17694,0.176941 -0.17694,0.427606 v 0 q 0,0.250665 0.17694,0.434978 0.18431,0.184313 0.43498,0.184313 0.25804,0 0.43498,-0.184313 0.18431,-0.184313 0.18431,-0.434978 z"
         id="path23529"
         transform="matrix(0.9828032,0,0,1.0174977,0.09999851,-7.3705751e-5)"
         style="font-size:7.37251px;line-height:0;font-family:Silom;-inkscape-font-specification:'Silom, Normal';letter-spacing:6.27125px;opacity:0.85;stroke:#000000;stroke-width:0.455634;stroke-linecap:round;stroke-linejoin:round;stroke-miterlimit:0.2;filter:url(#filter14890)" />
      <path
         d="m 119.99589,50.946271 v -0.630128 q 0,-0.255051 -0.18114,-0.435088 -0.1739,-0.187537 -0.4275,-0.187537 h -0.6014 q -0.53619,0 -0.6014,0.622625 h -0.60864 q 0.14492,-1.245251 1.21004,-1.245251 h 1.21004 q 0.4927,0 0.84774,0.367574 0.35505,0.367574 0.35505,0.877677 v 3.128131 h -1.20279 v -0.622626 q -0.0724,0.622626 -0.60864,0.622626 h -0.6014 q -0.49271,0 -0.855,-0.367574 -0.35504,-0.367574 -0.35504,-0.885178 v 0 q 0,-0.510103 0.35504,-0.877677 0.36229,-0.367574 0.855,-0.367574 z m 0,0.622625 h -0.60864 q -0.24636,0 -0.4275,0.187538 -0.1739,0.180036 -0.1739,0.435088 v 0 q 0,0.255051 0.1739,0.442589 0.18114,0.187537 0.4275,0.187537 0.2536,0 0.4275,-0.187537 0.18114,-0.187538 0.18114,-0.442589 z"
         id="path23531"
         style="font-size:7.37251px;line-height:0;font-family:Silom;-inkscape-font-specification:'Silom, Normal';letter-spacing:6.27125px;opacity:0.940678;fill:#ffffff;stroke:#ffffff;stroke-width:0.455634;stroke-linecap:round;stroke-linejoin:round;stroke-miterlimit:0.2" />
      <path
         d="m 119.99589,50.946271 v -0.630128 q 0,-0.255051 -0.18114,-0.435088 -0.1739,-0.187537 -0.4275,-0.187537 h -0.6014 q -0.53619,0 -0.6014,0.622625 h -0.60864 q 0.14492,-1.245251 1.21004,-1.245251 h 1.21004 q 0.4927,0 0.84774,0.367574 0.35505,0.367574 0.35505,0.877677 v 3.128131 h -1.20279 v -0.622626 q -0.0724,0.622626 -0.60864,0.622626 h -0.6014 q -0.49271,0 -0.855,-0.367574 -0.35504,-0.367574 -0.35504,-0.885178 v 0 q 0,-0.510103 0.35504,-0.877677 0.36229,-0.367574 0.855,-0.367574 z m 0,0.622625 h -0.60864 q -0.24636,0 -0.4275,0.187538 -0.1739,0.180036 -0.1739,0.435088 v 0 q 0,0.255051 0.1739,0.442589 0.18114,0.187537 0.4275,0.187537 0.2536,0 0.4275,-0.187537 0.18114,-0.187538 0.18114,-0.442589 z"
         id="path23533"
         style="font-size:7.37251px;line-height:0;font-family:Silom;-inkscape-font-specification:'Silom, Normal';letter-spacing:6.27125px;opacity:0.940678;fill:#3771c8;stroke:#3771c8;stroke-width:0.273379;stroke-linecap:round;stroke-linejoin:round;stroke-miterlimit:0.2" />
      <path
         d="m 119.99589,50.946271 v -0.630128 q 0,-0.255051 -0.18114,-0.435088 -0.1739,-0.187537 -0.4275,-0.187537 h -0.6014 q -0.53619,0 -0.6014,0.622625 h -0.60864 q 0.14492,-1.245251 1.21004,-1.245251 h 1.21004 q 0.4927,0 0.84774,0.367574 0.35505,0.367574 0.35505,0.877677 v 3.128131 h -1.20279 v -0.622626 q -0.0724,0.622626 -0.60864,0.622626 h -0.6014 q -0.49271,0 -0.855,-0.367574 -0.35504,-0.367574 -0.35504,-0.885178 v 0 q 0,-0.510103 0.35504,-0.877677 0.36229,-0.367574 0.855,-0.367574 z m 0,0.622625 h -0.60864 q -0.24636,0 -0.4275,0.187538 -0.1739,0.180036 -0.1739,0.435088 v 0 q 0,0.255051 0.1739,0.442589 0.18114,0.187537 0.4275,0.187537 0.2536,0 0.4275,-0.187537 0.18114,-0.187538 0.18114,-0.442589 z"
         id="path23535"
         style="font-size:7.37251px;line-height:0;font-family:Silom;-inkscape-font-specification:'Silom, Normal';letter-spacing:6.27125px;opacity:0.940678;fill:#ffffff;stroke-width:0.0911263;stroke-linecap:square;stroke-miterlimit:0.2" />
    </g>
    <g
       id="g23547"
       transform="matrix(3.3245886,0,0,2.5357031,-264.59576,-85.789354)"
       style="stroke-width:0.344415">
      <path
         d="m 106.396,48.817027 h 1.23121 v 3.686255 h 0.61192 q 0.25804,0 0.43498,-0.184313 0.18431,-0.184313 0.18431,-0.434978 v -3.066964 h 1.22384 v 3.686255 h 0.61929 q 0.25067,0 0.42761,-0.184313 0.18431,-0.184313 0.18431,-0.434978 v -3.066964 h 1.23121 v 2.197008 q 0,0.862583 -0.61929,1.481874 -0.61192,0.619291 -1.48188,0.619291 h -1.58509 V 52.923515 Q 108.50454,53.1152 107.98847,53.1152 H 106.396 Z"
         id="path23539"
         transform="matrix(0.9828032,0,0,1.0174977,0.09999851,-7.3705751e-5)"
         style="font-size:7.37251px;line-height:0;font-family:Silom;-inkscape-font-specification:'Silom, Normal';letter-spacing:6.27125px;opacity:0.85;stroke:#000000;stroke-width:0.455634;stroke-linecap:round;stroke-linejoin:round;stroke-miterlimit:0.2;filter:url(#filter14890)" />
      <path
         d="m 104.16669,49.070892 h 1.21004 v 3.750756 h 0.60139 q 0.25361,0 0.4275,-0.187537 0.18115,-0.187538 0.18115,-0.442589 v -3.12063 h 1.20279 v 3.750756 h 0.60864 q 0.24635,0 0.42025,-0.187537 0.18115,-0.187538 0.18115,-0.442589 v -3.12063 h 1.21003 v 2.235451 q 0,0.877677 -0.60864,1.507804 -0.60139,0.630127 -1.45639,0.630127 h -1.55783 v -0.19504 q -0.3478,0.19504 -0.85499,0.19504 h -1.56509 z"
         id="path23541"
         style="font-size:7.37251px;line-height:0;font-family:Silom;-inkscape-font-specification:'Silom, Normal';letter-spacing:6.27125px;opacity:0.940678;fill:#ffffff;stroke:#ffffff;stroke-width:0.455634;stroke-linecap:round;stroke-linejoin:round;stroke-miterlimit:0.2" />
      <path
         d="m 104.16669,49.070892 h 1.21004 v 3.750756 h 0.60139 q 0.25361,0 0.4275,-0.187537 0.18115,-0.187538 0.18115,-0.442589 v -3.12063 h 1.20279 v 3.750756 h 0.60864 q 0.24635,0 0.42025,-0.187537 0.18115,-0.187538 0.18115,-0.442589 v -3.12063 h 1.21003 v 2.235451 q 0,0.877677 -0.60864,1.507804 -0.60139,0.630127 -1.45639,0.630127 h -1.55783 v -0.19504 q -0.3478,0.19504 -0.85499,0.19504 h -1.56509 z"
         id="path23543"
         style="font-size:7.37251px;line-height:0;font-family:Silom;-inkscape-font-specification:'Silom, Normal';letter-spacing:6.27125px;opacity:0.940678;fill:#3771c8;stroke:#3771c8;stroke-width:0.273379;stroke-linecap:round;stroke-linejoin:round;stroke-miterlimit:0.2" />
      <path
         d="m 104.16669,49.070892 h 1.21004 v 3.750756 h 0.60139 q 0.25361,0 0.4275,-0.187537 0.18115,-0.187538 0.18115,-0.442589 v -3.12063 h 1.20279 v 3.750756 h 0.60864 q 0.24635,0 0.42025,-0.187537 0.18115,-0.187538 0.18115,-0.442589 v -3.12063 h 1.21003 v 2.235451 q 0,0.877677 -0.60864,1.507804 -0.60139,0.630127 -1.45639,0.630127 h -1.55783 v -0.19504 q -0.3478,0.19504 -0.85499,0.19504 h -1.56509 z"
         id="path23545"
         style="font-size:7.37251px;line-height:0;font-family:Silom;-inkscape-font-specification:'Silom, Normal';letter-spacing:6.27125px;opacity:0.940678;fill:#ffffff;stroke-width:0.0911263;stroke-linecap:square;stroke-miterlimit:0.2" />
    </g>
    <g
       id="g23557"
       transform="matrix(3.3245886,0,0,2.5357031,-243.48462,-85.789354)"
       style="stroke-width:0.344415">
      <path
         d="m 97.669722,53.1152 v -5.529382 h 1.23121 V 53.1152 Z"
         id="path23549"
         transform="matrix(0.9828032,0,0,1.0174977,0.09999851,-7.3705751e-5)"
         style="font-size:7.37251px;line-height:0;font-family:Silom;-inkscape-font-specification:'Silom, Normal';letter-spacing:6.27125px;opacity:0.85;stroke:#000000;stroke-width:0.455634;stroke-linecap:round;stroke-linejoin:round;stroke-miterlimit:0.2;filter:url(#filter14890)" />
      <path
         d="M 95.590476,53.444274 V 47.81814 h 1.210036 v 5.626134 z"
         id="path23551"
         style="font-size:7.37251px;line-height:0;font-family:Silom;-inkscape-font-specification:'Silom, Normal';letter-spacing:6.27125px;opacity:0.940678;fill:#ffffff;stroke:#ffffff;stroke-width:0.455634;stroke-linecap:round;stroke-linejoin:round;stroke-miterlimit:0.2" />
      <path
         d="M 95.590476,53.444274 V 47.81814 h 1.210036 v 5.626134 z"
         id="path23553"
         style="font-size:7.37251px;line-height:0;font-family:Silom;-inkscape-font-specification:'Silom, Normal';letter-spacing:6.27125px;opacity:0.940678;fill:#3771c8;stroke:#3771c8;stroke-width:0.273379;stroke-linecap:round;stroke-linejoin:round;stroke-miterlimit:0.2" />
      <path
         d="M 95.590476,53.444274 V 47.81814 h 1.210036 v 5.626134 z"
         id="path23555"
         style="font-size:7.37251px;line-height:0;font-family:Silom;-inkscape-font-specification:'Silom, Normal';letter-spacing:6.27125px;opacity:0.940678;fill:#ffffff;stroke-width:0.0911263;stroke-linecap:square;stroke-miterlimit:0.2" />
    </g>
    <g
       id="g23567"
       transform="matrix(3.3245886,0,0,2.5357031,-222.37347,-85.789354)"
       style="stroke-width:0.344415">
      <path
         d="m 88.943438,48.197736 v -0.611918 h 1.23121 v 0.611918 z m 0,4.917464 v -4.298173 h 1.23121 V 53.1152 Z"
         id="path23559"
         transform="matrix(0.9828032,0,0,1.0174977,0.09999851,-7.3705751e-5)"
         style="font-size:7.37251px;line-height:0;font-family:Silom;-inkscape-font-specification:'Silom, Normal';letter-spacing:6.27125px;opacity:0.85;stroke:#000000;stroke-width:0.455634;stroke-linecap:round;stroke-linejoin:round;stroke-miterlimit:0.2;filter:url(#filter14890)" />
      <path
         d="M 87.014256,48.440766 V 47.81814 h 1.210036 v 0.622626 z m 0,5.003508 v -4.373382 h 1.210036 v 4.373382 z"
         id="path23561"
         style="font-size:7.37251px;line-height:0;font-family:Silom;-inkscape-font-specification:'Silom, Normal';letter-spacing:6.27125px;opacity:0.940678;fill:#ffffff;stroke:#ffffff;stroke-width:0.455634;stroke-linecap:round;stroke-linejoin:round;stroke-miterlimit:0.2" />
      <path
         d="M 87.014256,48.440766 V 47.81814 h 1.210036 v 0.622626 z m 0,5.003508 v -4.373382 h 1.210036 v 4.373382 z"
         id="path23563"
         style="font-size:7.37251px;line-height:0;font-family:Silom;-inkscape-font-specification:'Silom, Normal';letter-spacing:6.27125px;opacity:0.940678;fill:#3771c8;stroke:#3771c8;stroke-width:0.273379;stroke-linecap:round;stroke-linejoin:round;stroke-miterlimit:0.2" />
      <path
         d="M 87.014256,48.440766 V 47.81814 h 1.210036 v 0.622626 z m 0,5.003508 v -4.373382 h 1.210036 v 4.373382 z"
         id="path23565"
         style="font-size:7.37251px;line-height:0;font-family:Silom;-inkscape-font-specification:'Silom, Normal';letter-spacing:6.27125px;opacity:0.940678;fill:#ffffff;stroke-width:0.0911263;stroke-linecap:square;stroke-miterlimit:0.2" />
    </g>
    <g
       id="g23577"
       transform="matrix(3.3245886,0,0,2.5357031,-201.26232,-85.789354)"
       style="stroke-width:0.344415">
      <path
         d="m 75.299693,47.585818 h 1.231209 v 4.917464 h 0.611918 q 0.258038,0 0.434979,-0.184313 0.184312,-0.184313 0.184312,-0.434978 v -4.298173 h 1.223837 v 4.917464 h 0.619291 q 0.250665,0 0.427605,-0.184313 0.184313,-0.184313 0.184313,-0.434978 v -4.298173 h 1.231209 v 3.428217 q 0,0.862583 -0.619291,1.481874 -0.611918,0.619291 -1.481874,0.619291 h -1.58509 V 52.923515 Q 77.408231,53.1152 76.892155,53.1152 h -1.592462 z"
         id="path23569"
         transform="matrix(0.9828032,0,0,1.0174977,0.09999851,-7.3705751e-5)"
         style="font-size:7.37251px;line-height:0;font-family:Silom;-inkscape-font-specification:'Silom, Normal';letter-spacing:6.27125px;opacity:0.85;stroke:#000000;stroke-width:0.455634;stroke-linecap:round;stroke-linejoin:round;stroke-miterlimit:0.2;filter:url(#filter14890)" />
      <path
         d="m 73.60514,47.81814 h 1.210036 v 5.003508 h 0.601395 q 0.253601,0 0.427498,-0.187537 0.181144,-0.187538 0.181144,-0.442589 V 47.81814 h 1.202789 v 5.003508 h 0.608642 q 0.246355,0 0.420252,-0.187537 0.181144,-0.187538 0.181144,-0.442589 V 47.81814 h 1.210036 v 3.488203 q 0,0.877677 -0.608641,1.507804 -0.601395,0.630127 -1.456392,0.630127 h -1.55783 v -0.19504 q -0.347796,0.19504 -0.854996,0.19504 H 73.60514 Z"
         id="path23571"
         style="font-size:7.37251px;line-height:0;font-family:Silom;-inkscape-font-specification:'Silom, Normal';letter-spacing:6.27125px;opacity:0.940678;fill:#ffffff;stroke:#ffffff;stroke-width:0.455634;stroke-linecap:round;stroke-linejoin:round;stroke-miterlimit:0.2" />
      <path
         d="m 73.60514,47.81814 h 1.210036 v 5.003508 h 0.601395 q 0.253601,0 0.427498,-0.187537 0.181144,-0.187538 0.181144,-0.442589 V 47.81814 h 1.202789 v 5.003508 h 0.608642 q 0.246355,0 0.420252,-0.187537 0.181144,-0.187538 0.181144,-0.442589 V 47.81814 h 1.210036 v 3.488203 q 0,0.877677 -0.608641,1.507804 -0.601395,0.630127 -1.456392,0.630127 h -1.55783 v -0.19504 q -0.347796,0.19504 -0.854996,0.19504 H 73.60514 Z"
         id="path23573"
         style="font-size:7.37251px;line-height:0;font-family:Silom;-inkscape-font-specification:'Silom, Normal';letter-spacing:6.27125px;opacity:0.940678;fill:#3771c8;stroke:#3771c8;stroke-width:0.273379;stroke-linecap:round;stroke-linejoin:round;stroke-miterlimit:0.2" />
      <path
         d="m 73.60514,47.81814 h 1.210036 v 5.003508 h 0.601395 q 0.253601,0 0.427498,-0.187537 0.181144,-0.187538 0.181144,-0.442589 V 47.81814 h 1.202789 v 5.003508 h 0.608642 q 0.246355,0 0.420252,-0.187537 0.181144,-0.187538 0.181144,-0.442589 V 47.81814 h 1.210036 v 3.488203 q 0,0.877677 -0.608641,1.507804 -0.601395,0.630127 -1.456392,0.630127 h -1.55783 v -0.19504 q -0.347796,0.19504 -0.854996,0.19504 H 73.60514 Z"
         id="path23575"
         style="font-size:7.37251px;line-height:0;font-family:Silom;-inkscape-font-specification:'Silom, Normal';letter-spacing:6.27125px;opacity:0.940678;fill:#ffffff;stroke-width:0.0911263;stroke-linecap:square;stroke-miterlimit:0.2" />
    </g>
  </g>
</svg>
